<?xml version="1.0" encoding="utf-8"?><svg id="Ebene_1" data-name="Ebene 1" xmlns="http://www.w3.org/2000/svg" viewBox="0 0 921 314"><defs><style>.cls-1{fill:#0069b3}.cls-2{fill:#575756}.cls-3{fill:#f2b723}.cls-5{fill:#1d7abc}</style></defs><path class="cls-1" d="M1.81 209.15H24.6c22.91 0 41.17 14.16 41.17 37.95 0 25.9-15.72 39.29-41.17 39.29H1.81zm11.07 67.5H24.5c19 0 29.54-9.19 29.54-29.1 0-18-12.28-28.66-28.22-28.66H12.88zM91 217.34H79.26v-11.73H91zM79.92 230h10.4v56.44h-10.4zM149.85 284.06c-4 1.44-8.52 3.65-17.81 3.65-20 0-29.21-12.17-29.21-30.54 0-16.7 10.51-28.54 26.44-28.54 18.81 0 24.9 13.72 24.9 31.86h-40.28a18.46 18.46 0 0 0 18.59 18.81c6.86 0 14.83-3.54 17.37-5.64zm-6.75-31.31c0-8.63-5.09-15.71-14-15.71-10.18 0-14.38 8.41-15.16 15.71zM192.89 209.15h15.49v44.59c0 13.17 4.2 21.8 16 21.8s16.05-8.63 16.05-21.8v-44.59H256v49.35c0 20.69-11.73 29.21-31.54 29.21s-31.53-8.52-31.53-29.21zM269.23 229.4h14v7.75h.22c4.65-6.53 11-9.08 18.7-9.08 13.5 0 19.37 9.52 19.37 22.35v36h-14.78V256c0-7-.11-16.38-9.63-16.38-10.73 0-13.05 11.62-13.05 18.92v27.89h-14.83zM336.61 232.39a50.92 50.92 0 0 1 19.81-4.32c17.37 0 24.56 7.19 24.56 24v7.31c0 5.75.11 10.07.22 14.27s.33 8.3.67 12.73h-13.06a66.06 66.06 0 0 1-.66-8.52h-.23c-3.43 6.3-10.84 9.84-17.59 9.84-10.07 0-19.92-6.08-19.92-16.93 0-8.52 4.1-13.5 9.74-16.26s13-3.32 19.14-3.32h8.19c0-9.18-4.09-12.28-12.83-12.28a29.84 29.84 0 0 0-17.6 6.19zM354 276.87a12.57 12.57 0 0 0 10.4-5.09c2.44-3.21 3.1-7.3 3.1-11.73h-6.42c-6.64 0-16.48 1.11-16.48 9.85-.02 4.87 4.07 6.97 9.4 6.97zM392.82 203.4h14.82v33.3h.23c4.09-5.42 9.29-8.63 17-8.63 17.48 0 23.9 14 23.9 29.66s-6.42 30-23.9 30c-6.31 0-13.17-2.21-17.49-8.3h-.22v7h-14.34zm28 72.81c9.74 0 12.5-10.63 12.5-18.48 0-7.64-2.65-18.15-12.28-18.15s-13.28 10.18-13.28 18.15 3.24 18.48 13.05 18.48zM457.65 203.4h14.83v33.75h.22a21.19 21.19 0 0 1 17.92-9.08c13.5 0 19.37 9.52 19.37 22.35v36h-14.83V256c0-7-.11-16.38-9.63-16.38-10.73 0-13 11.62-13 18.92v27.89h-14.88zM525 232.39a50.92 50.92 0 0 1 19.81-4.32c17.37 0 24.56 7.19 24.56 24v7.31c0 5.75.11 10.07.22 14.27s.33 8.3.67 12.73h-13.03a69.88 69.88 0 0 1-.66-8.52h-.22c-3.44 6.3-10.85 9.84-17.6 9.84-10.07 0-19.92-6.08-19.92-16.93 0-8.52 4.1-13.5 9.74-16.26s12.95-3.32 19.14-3.32h8.19c0-9.18-4.09-12.28-12.83-12.28a29.84 29.84 0 0 0-17.6 6.19zm2.8-13.39v-12.84h12.83V219zm14.6 57.87a12.57 12.57 0 0 0 10.4-5.09c2.44-3.21 3.1-7.3 3.1-11.73h-6.41c-6.65 0-16.49 1.11-16.49 9.85 0 4.87 4.09 6.97 9.4 6.97zm21-70.71V219h-12.81v-12.84zM581.24 229.4h14v7.75h.22c4.65-6.53 11-9.08 18.7-9.08 13.5 0 19.37 9.52 19.37 22.35v36h-14.78V256c0-7-.11-16.38-9.63-16.38-10.73 0-13.06 11.62-13.06 18.92v27.89h-14.82zM698.41 229.4v51.45c0 15.49-6.2 30.1-30.1 30.1a50.21 50.21 0 0 1-19.69-3.87l1.22-12.62c4.53 2.44 11.95 5 16.59 5 16.38 0 17.15-12.28 17.15-22.13h-.22c-2.76 4.87-9.4 9.08-17.7 9.08-16.82 0-23.24-13.5-23.24-28.77 0-13.72 7.08-29.55 24.12-29.55 7.53 0 13.39 2.55 17.49 9.08h.22v-7.77zm-14.83 27.88c0-9.73-3.76-17.7-12.39-17.7-10.07 0-13.28 9.3-13.28 18 0 7.74 4.1 17.26 12.62 17.26 9.29.04 13.05-8.04 13.05-17.56zM711.24 204.84h14.83V219h-14.83zm0 24.56h14.83v57h-14.83zM791.24 229.4v51.45c0 15.49-6.2 30.1-30.1 30.1a50.21 50.21 0 0 1-19.69-3.87l1.21-12.62c4.54 2.44 12 5 16.6 5 16.38 0 17.15-12.28 17.15-22.13h-.22c-2.77 4.87-9.41 9.08-17.7 9.08-16.82 0-23.24-13.5-23.24-28.77 0-13.72 7.08-29.55 24.12-29.55 7.53 0 13.39 2.55 17.48 9.08h.23v-7.77zm-14.83 27.88c0-9.73-3.76-17.7-12.39-17.7-10.07 0-13.28 9.3-13.28 18 0 7.74 4.09 17.26 12.61 17.26 9.3.04 13.06-8.04 13.06-17.56zM849.43 283.18c-5.42 3-11.61 4.53-19.58 4.53-18.81 0-29.77-10.84-29.77-29.54 0-16.49 8.75-30.1 26.45-30.1 21.13 0 27.11 14.5 27.11 34.42h-39.39c.66 9.18 7.08 14.38 16.26 14.38 7.2 0 13.39-2.66 18.92-5.75zm-10-30.88c-.44-7.19-3.76-13.38-12.05-13.38s-12.51 5.75-13.17 13.38zM862.49 229.4h14v7.75h.22c4.65-6.53 11-9.08 18.7-9.08 13.5 0 19.36 9.52 19.36 22.35v36H900V256c0-7-.12-16.38-9.63-16.38-10.73 0-13.06 11.62-13.06 18.92v27.89h-14.82z"/><path class="cls-2" d="M221.25 23.29c0 8.55-4.22 13.12-11.55 13.12s-11.55-4.57-11.55-13.12V5.46h4.26v17.26c0 5.85 1.79 9.86 7.29 9.86s7.29-4 7.29-9.86V5.46h4.26zM228.5 13.66h3.88v3.53h.09a7.77 7.77 0 0 1 7.12-4.05c5.63 0 8.14 3.57 8.14 9.54v13.21h-4V24.38c0-5.19-1.11-7.71-4.6-7.93-4.56 0-6.61 3.75-6.61 9.15v10.29h-4zM255.58 15.23a13.61 13.61 0 0 1 7.16-2.09c6.22 0 8.74 3.13 8.74 9.19v9.2a35 35 0 0 0 .17 4.36h-3.75V33h-.09a8 8 0 0 1-6.73 3.4c-4.69 0-8-2.09-8-6.93 0-5.58 6-7.32 10.11-7.32 1.57 0 2.68 0 4.26.09 0-3.84-1.36-5.8-5.37-5.8a10.11 10.11 0 0 0-6.31 2.26zm11.89 10.07c-.85 0-1.7-.09-2.56-.09-2.17 0-7.54.35-7.54 4.27 0 2.36 2.21 3.62 4.05 3.62 4 0 6.05-2.53 6.05-5.84zM278.26 3.2h4v13.51h.09c1.24-2.05 3.41-3.57 7.21-3.57 6.3 0 9.37 5.27 9.37 11.24s-2.77 12-9.33 12a8.67 8.67 0 0 1-7.42-3.66h-.08v3.14h-3.84zm10.44 13.25c-4.35 0-6.44 4.23-6.44 8.37 0 3.7 1.88 8.28 6.4 8.28 4.31 0 6.1-4.93 6-8.41.1-4.01-1.61-8.24-5.96-8.24zM304.31 3.2h4v13.64h.08a7.94 7.94 0 0 1 7-3.7c5.63 0 8.15 3.57 8.15 9.54v13.21h-4V24.38c0-5.19-1.11-7.71-4.61-7.93-4.56 0-6.6 3.75-6.6 9.15v10.29h-4zM331.38 15.23a13.64 13.64 0 0 1 7.16-2.09c6.23 0 8.74 3.13 8.74 9.19v9.2a37.3 37.3 0 0 0 .17 4.36h-3.75V33h-.08a8 8 0 0 1-6.74 3.4c-4.69 0-8-2.09-8-6.93 0-5.58 6-7.32 10.1-7.32 1.58 0 2.69 0 4.27.09 0-3.84-1.37-5.8-5.38-5.8a10.11 10.11 0 0 0-6.31 2.26zm11.9 10.07c-.86 0-1.71-.09-2.56-.09-2.18 0-7.55.35-7.55 4.27 0 2.36 2.22 3.62 4.05 3.62 4 0 6.06-2.53 6.06-5.84zm-10-19.4h4v4.36h-4zm7 0h4v4.36h-4zM354.06 13.66h3.88v3.53h.06a7.77 7.77 0 0 1 7.12-4.05c5.62 0 8.14 3.57 8.14 9.54v13.21h-4V24.38c0-5.19-1.11-7.71-4.6-7.93-4.56 0-6.61 3.75-6.61 9.15v10.29h-4zM399.34 34.93c0 6.76-3.41 10.64-11.21 10.64a21.56 21.56 0 0 1-7.8-1.53l.42-3.79a16.27 16.27 0 0 0 7.85 2c4.22 0 6.73-2.92 6.73-7.62v-2.18h-.08a9 9 0 0 1-7.25 3.44c-6.23 0-9.3-5.19-9.3-10.94s3.16-11.81 9.72-11.81c3.84 0 6 1.43 7.17 3.83h.08v-3.31h3.71zm-4-9.89c0-4.63-2.09-8.59-6.35-8.59-4.05 0-6.05 4.49-6.05 8.28 0 4.18 2.3 7.85 6.05 7.85s6.34-3.4 6.34-7.58zM410.94 8.69h-4.52V4.07h4.52zm-4.27 5h4v22.2h-4zM437.24 34.93c0 6.76-3.41 10.64-11.21 10.64a21.56 21.56 0 0 1-7.8-1.53l.42-3.79a16.27 16.27 0 0 0 7.85 2c4.22 0 6.73-2.92 6.73-7.62v-2.18h-.08a9 9 0 0 1-7.29 3.44c-6.23 0-9.29-5.19-9.29-10.94s3.15-11.81 9.72-11.81c3.83 0 6 1.43 7.16 3.83h.08v-3.31h3.71zm-4-9.89c0-4.63-2.08-8.59-6.35-8.59-4.05 0-6.05 4.49-6.05 8.28 0 4.18 2.3 7.85 6.05 7.85s6.34-3.4 6.34-7.58zM460.73 35a16.24 16.24 0 0 1-6.86 1.44c-7.72 0-11.25-4.79-11.25-12 0-6.58 4.05-11.24 10.18-11.24 7.25 0 9.6 5.4 9.6 12.55h-15.52A7.2 7.2 0 0 0 454 33.1a12.73 12.73 0 0 0 6.69-2.22zm-2.6-12.33c0-3.4-2-6.19-5.41-6.19-3.92 0-5.54 3.31-5.84 6.19zM332.87 57.75h8.06c6.18 0 10.45 2 10.45 7.68 0 4.18-2.39 6.27-6.14 7.23v.09c4.05.35 6.9 3 6.9 7.32 0 6.54-5.28 8.11-11.34 8.11h-7.93zm4.27 13h2.34c4.14 0 7.63-.39 7.63-4.88 0-3.62-3-4.53-5.5-4.53h-4.47zm0 13.87h3.19c3.84 0 7.29-.83 7.29-4.93 0-4.71-4.05-5.36-7.71-5.36h-2.77zM378 88.18h-3.88v-3.53h-.08a7.79 7.79 0 0 1-7.12 4c-5.63 0-8.14-3.57-8.14-9.54V66h4v11.46c0 5.18 1.11 7.71 4.61 7.93 4.56 0 6.6-3.75 6.6-9.15V66h4zm-15.09-30h4v4.36h-4zm7 0h4v4.36h-4zM384.84 66h3.76v3.44h.08a6.62 6.62 0 0 1 5.67-4 11.23 11.23 0 0 1 2.64.3v3.66a5.87 5.87 0 0 0-2.21-.39c-3.58 0-5.93 3.49-5.93 9.07v10.1h-4zM420.66 87.22c0 6.76-3.41 10.64-11.21 10.64a21.61 21.61 0 0 1-7.81-1.53l.43-3.79a16.23 16.23 0 0 0 7.84 2c4.22 0 6.74-2.92 6.74-7.62v-2.18h-.09a9 9 0 0 1-7.29 3.44c-6.22 0-9.29-5.19-9.29-10.94s3.16-11.81 9.72-11.81c3.84 0 6 1.43 7.16 3.83h.14V66h3.71zm-4-9.89c0-4.62-2.09-8.59-6.35-8.59-4.05 0-6.06 4.49-6.06 8.28 0 4.19 2.31 7.85 6.06 7.85s6.34-3.4 6.34-7.54zM444.15 87.26a16.3 16.3 0 0 1-6.87 1.44c-7.71 0-11.25-4.79-11.25-12 0-6.58 4.05-11.24 10.19-11.24 7.25 0 9.59 5.4 9.59 12.55h-15.52a7.2 7.2 0 0 0 7.17 7.41 12.73 12.73 0 0 0 6.69-2.22zm-2.6-12.33c0-3.4-2-6.19-5.42-6.19-3.92 0-5.54 3.31-5.84 6.19zM451.18 66h3.76v3.44h.06a6.62 6.62 0 0 1 5.67-4 11.39 11.39 0 0 1 2.65.3v3.66a6 6 0 0 0-2.22-.39c-3.58 0-5.93 3.49-5.93 9.07v10.1h-4zM329.67 115.45c-2.08-1.4-4.34-2.09-8.18-2.09-6.86 0-11.43 5.1-11.43 11.9 0 7.14 5 11.9 11.22 11.9a16.61 16.61 0 0 0 4.77-.53v-9.24h-6.27v-3.57h10.53v15.82a26.46 26.46 0 0 1-9.08 1.35c-9.42 0-15.69-6.19-15.69-15.87 0-9.37 6.66-15.6 15.74-15.6a21.88 21.88 0 0 1 8.74 1.53zM338.5 119.81a13.64 13.64 0 0 1 7.16-2.1c6.23 0 8.74 3.14 8.74 9.2v9.2a37.3 37.3 0 0 0 .17 4.36h-3.75v-2.88h-.08A8 8 0 0 1 344 141c-4.69 0-8-2.09-8-6.93 0-5.58 6-7.32 10.1-7.32 1.58 0 2.69 0 4.27.09 0-3.84-1.37-5.8-5.38-5.8a10.1 10.1 0 0 0-6.3 2.26zm11.9 10.07c-.86 0-1.71-.09-2.56-.09-2.18 0-7.55.35-7.55 4.27 0 2.35 2.22 3.62 4 3.62 4 0 6.06-2.53 6.06-5.84zM380.41 140.47h-3.88v-3.53h-.09a7.77 7.77 0 0 1-7.11 4.05c-5.63 0-8.15-3.57-8.15-9.55v-13.2h4v11.51c0 5.18 1.11 7.71 4.6 7.93 4.57 0 6.61-3.75 6.61-9.15v-10.29h4zM398.79 121.55H393v12.16c0 2.57 1.53 4 3.37 4a4.81 4.81 0 0 0 2.73-.79v3.49a12.46 12.46 0 0 1-3.41.61c-4.14 0-6.7-2-6.7-6.45v-13h-4.9v-3.31H389v-5.15l4-1.3v6.45h5.76zM408.59 113.27h-4.52v-4.62h4.52zm-4.26 5h4v22.23h-4zM415.67 118.24h3.88v3.53h.08a7.8 7.8 0 0 1 7.12-4.06c5.63 0 8.15 3.58 8.15 9.55v13.21h-4V129c0-5.19-1.11-7.71-4.61-7.93-4.56 0-6.6 3.75-6.6 9.15v10.29h-4zM461 139.51c0 6.76-3.41 10.64-11.21 10.64a21.61 21.61 0 0 1-7.81-1.53l.43-3.79a16.23 16.23 0 0 0 7.84 2c4.22 0 6.74-2.92 6.74-7.63V137h-.09a9 9 0 0 1-7.29 3.45c-6.22 0-9.29-5.19-9.29-10.94s3.16-11.82 9.72-11.82c3.84 0 6 1.44 7.16 3.84h.09v-3.31H461zm-4-9.9c0-4.62-2.09-8.58-6.35-8.58-4 0-6.06 4.49-6.06 8.28 0 4.18 2.31 7.85 6.06 7.85s6.29-3.4 6.29-7.55z"/><path class="cls-3" transform="rotate(-45.06 788.84106256 79.18467563)" d="M786.82 12.62h3.98v133.15h-3.98z"/><path class="cls-3" transform="rotate(-45.01 790.77209752 77.27241659)" d="M721.45 75.29h138.57v3.99H721.45z"/><path class="cls-3" d="M786.82 12.62h3.99v133.16h-3.99z"/><path class="cls-3" d="M722.24 77.21H855.4v3.98H722.24z"/><path class="cls-3" d="M841.27 78.49a53.19 53.19 0 1 1-15.58-37.61l13.49-13.49a72.27 72.27 0 1 0 21.05 51.1z"/><path class="cls-3" d="M801 78.72a12.93 12.93 0 1 1-12.92-12.92A12.93 12.93 0 0 1 801 78.72zM870.48 84.92h-49.46l8.64-8.78h45.37l-4.55 8.78zM711.77 77.32h23.02v1.75h-23.02zM789.47 1.05v21.74l-1.76-.46V1.05h1.76zM788.31 135.05h1.76v20.41h-1.76zM735.73 22.32l15.28 15.1-1.24 1.24-15.29-15.09 1.25-1.25zM828.09 115.18l16.81 16.32-1.56 1.4-16.82-16.32 1.57-1.4zM845.59 25.69l-17.66 17.53-1.4-1.57 17.65-17.52 1.41 1.56zM749.41 117.86l-14.81 15.2-1.57-1.56 14.81-15.19 1.57 1.55zM718.38 46.95l19.11 7.95-.81 1.75-19.13-7.95.83-1.75zM838.67 96.61l22.35 9.43-.82 1.91-22.34-9.43.81-1.91zM820.27 7.66l-9.29 21.3-1.29-1.45 8.83-20.67 1.75.82zM767.41 129.9l-7.84 19.6-1.9-.65 7.83-19.6 1.91.65zM716.92 106.03l20.27-8.6.66 1.74-20.28 8.61-.65-1.75zM761.18 6.2l8.75 20.78-1.59.82-8.74-20.79 1.58-.81zM812.26 129.37l8.01 19.48-1.75.65-8-19.48 1.74-.65z"/><path d="M795.92 78.75a7.84 7.84 0 1 1-7.83-7.85 7.83 7.83 0 0 1 7.83 7.85z" fill="#fff"/><path class="cls-5" d="M724 148.6c-.49-.63 0 .48-.38-.38a.47.47 0 0 1 .38.38zM917.87 162.33a28.71 28.71 0 0 1-2.89-3.2 12.2 12.2 0 0 0-1.54-1.67 15.53 15.53 0 0 0-1.67-1.42c-.27-.19.33-.24-.32-.64-2.42-1.37-5.74-4-8.6-5.8h.23c-.53-.39-1.42-.31-2-.63 0-.07.24 0 .13-.16-.24.13-1.16-.38-1.49-.34-.21-.18-.12-.33-.41-.56l-.45.11c-1.22.26-2.45-.88-4-.95.08 0 .23-.05.13-.13-1.19-.08-2.47-.36-3.8-.55s-2.69-.43-4-.46c.11-.08.22-.23.08-.34-.16.25-1 .25-1.66.24-.3-.29-1.2.11-2 0l.07-.06c-.61.28-.89-.18-1.38.16l-.38-.22c-.27.38-.87-.22-1.37 0v.08c-.46.09-.71-.07-1.14 0h-.05c-1 .15-1.62 0-1.57.27-.38-.22 1-.16.4-.49-1.69.19-3.36.53-5.06.74-.84.14-1.68.33-2.52.48a23.49 23.49 0 0 0-2.49.54c-.4 0-.64 0-.76-.08a8.7 8.7 0 0 0-1.47.6c.1 0-.26-.09-.44-.06-.62.08-.54.53-1.23.61.24-.16.29-.28.18-.36a8.41 8.41 0 0 1-1.86.88c.09-.08.24-.16.18-.24-.63.47-1.31.39-1.87.78l.17-.25c-1.06.16-.16.45-1.06.64.18-.12.09-.16.1-.24a20.33 20.33 0 0 1-2.75 1.4.07.07 0 0 0 0-.08 21.72 21.72 0 0 0-2.65 1.19c-.37.07-.06-.44-.93 0 .18.31-1.46.8-.77.93a12.29 12.29 0 0 0-2.49 1.07c.28-.28-.55-.22.06-.54h-.56c0-.16.51-.19.28-.28a13.42 13.42 0 0 1-1.48.8 7.09 7.09 0 0 1-1.77 1.59c.39-.34-.42-.22-.14-.42l-1 1.24c-.31.17-.19-.21-.6.09.06.07-.11.22-.21.36s-1.25.73-1.54.49c-.2 0 .47-.32.07-.26-.57.3-.54.41-1.11.71-.4.15-1.05.7-.55.66.27-.12-.2-.13.24-.24a4.06 4.06 0 0 1-1.38 1c.17-.15.1-.22.13-.35a14.15 14.15 0 0 1-2.22 1.67c.06.16.19-.43.35-.41-1.2.36-2.12 1.45-3.19 1.63.14-.1.19.16.16.13-.54.25-.62 0-.93.28-.1-.1-.41.27-.75.48-.14.19-.12 0 .18-.18a14.78 14.78 0 0 1-3.58 1.95c.06.07-.56.66-.83.78v-.3c-.3 0-.88.46-1 .31-.45.52 2.08-1.28 1.41-.72-.28-.06-.92.84-.88.49-.53.28-.95.74-1.55.81.16 0 .3-.48-.12-.26-.75.4-.18.2-.76.56l-.35.26c.06.21-.7.31-.32.38-.16-.11-1.07.63-1.14.27v-.3c-.33.17-.43.51-.64.74-.06 0-.17 0-.17-.06.12.41-.81.33-1.08.81-.75.19-1.79.77-2.23.67a5 5 0 0 1-1.6.88c.11-.09.28-.17.28-.27-.44 0-.5.19-.83.41a7.57 7.57 0 0 0-1.37.11c-.51.32-.24.46-.24.61-.66-.19-1.46.86-2.23.73.18-.11.73-.49.24-.41-.64-.21-.92.64-1.81.74l.32.25c-.44-.07-1.15.61-1.18.25-.24.21-1 .22-.81.51-1.45.16-3.3 1.19-4.31.81-.18.11-.69.19-.55.33.38.09.43-.26.58-.17-.17.06-.19.16-.19.21-.46 0-.8.11-.46-.27-1 .06-.85.8-2.12 1 0-.15-.08-.18-.43-.08l-.63.39c-.81.12-.52-.22-.59-.44-.42.12-.94.21-1.1.42l-.57-.19c.41.14-.33.21-.52.3l.19-.09c-.09-.09-.57.08-.82.14.08.14.6.1.88.09-.2.14-.54.19-.81.35 0-.24-.73 0-1.08 0s-.41.28-.52.29-.65.08-.36-.13c.12-.06.32.06.52-.08-.27 0-.27-.25-.78 0s.17.44-.62.41c.19-.08.22-.18.36-.29h-.73v.21c-.1 0 0-.06-.08-.08-.19.24-1.09.2-1.23.47a8.49 8.49 0 0 1-1.13 0h.06a2.46 2.46 0 0 0-1.33.24v-.05a2.93 2.93 0 0 0-1.06.24c-.6-.1-.27-.77-.89-.45-.59.05-.91.45-.66.57-1.08-.09-2.28.36-3.3 0-.15.09 0 .14-.36.2-1.59 0-3.35.32-4.6-.1.45-.09 0-.21 0-.33-.38.19-.45-.19-.59.13 0 .19 0 .28.44.36a9 9 0 0 1-2.9-.15c.26.1.05.15-.15.2.08-.3-.62-.36-1.15-.29l-.08.18-.33-.21c-.21 0-.25.37-.76.16a.34.34 0 0 0-.14-.21 3.68 3.68 0 0 1-1.92.12l-.46-.31c-.25 0-.69.12-.25.24a6 6 0 0 1-1.93-.59 13.29 13.29 0 0 1-3.08.12c-1.1-.1-2.22-.29-3.22-.46l.08-.13c-.51-.22-.32.19-.68 0 .2-.09-.35-.36.1-.44-.74-.29-1 0-1.54 0-.11.17.42 0 .28.17s-1-.34-1.2-.09c-.17-.15 0-.32.14-.4h-.49c-.5-.42 1.41-.3.9-.81h-.44c-.35-.36 1.19-.1.14-.4-.49 0-1 .33-.58.55-1-.15-.58.53-1.62.27-.25-.22.84.16.69-.11-.44-.33-1-.11-1.42-.28.45.21 0 .39-.34.36-.5-.25.4-.17-.34-.37-.16.12-.88.05-.31.32-.36.27-.75-.31-1.23-.15-.18-.31.91-.36.13-.7.07.27-1.09.05-.76.51-.3-.15-.28-.34 0-.43-.42-.26-1.23.14-1.25-.38l-.22.19c-.12-.12-.31-.25-.5-.45-.4-.12-1.39-.07-1.24-.42-.14 0-1-.3-.77 0 .52.33.71 0 .92.46-.32-.4-.84-.22-1.19-.24v-.15c-.21 0-.65-.2-.82-.1.17 0 .13-.14 0-.23l-.28.13c-.82-.17-.06-.43-.84-.64h.64c-.14 0-.33-.3-.72-.36-.21.14-.56.27-.74.37-.46-.07-.11-.28-.6-.26h.63c.11 0-.25-.45-.82-.67-.38-.08-1 0-.52.29-.29-.11-.64-.38-.36-.43-.67-.19 0 .24-.6.13-.18-.22-.82-.67-1.15-1l.7-.06-.38-.17c.6 0-.16-.3.22-.44a2.45 2.45 0 0 0-.86-.25c.57.76-1.09.19-1 .67-1.09-.38-.22-1.18-1.56-1.14.12.19-.52.22.18.44-.61-.36-.62.15-1.29-.38.63.13-.4-.68.51-.49-.12.09.39.31.53.34-.18-.27.24-.35-.4-.67-.41-.17-.94-.43-1-.2s.61.28.25.37c-.82-.33-.79-.7-1.3-.52.5.25.52.51.43.66l-.62-.22.18-.08c-.85-.61-.4.1-1.27-.44l-.25-.5c.34-.12 1.21.83 1.27.36-.56-.34-.86-.26-1.34-.66.14 0 .31.12.45.15-.2-.13-.11-.74-1.09-.91-.47-.14-.19.07-.28.2-.91-.52-1.27-.55-1.86-.89.3-.2-1-.67-.18-.55a3.45 3.45 0 0 0 2 1.09c-.13-.52.67.48 1.06.25-.72-.42-.49-.73-.47-1a1.64 1.64 0 0 0-.56-.21c-.21.14 0 .3-.06.51a5.56 5.56 0 0 0-2.14-1c-.19-.27 0-.4.34-.22a23.21 23.21 0 0 1-2.71-2c.31.71-1-.66-.8-.13.39.43.62.93.27.88-.27-.24.1-.12 0-.28-.49-.12-.35-.7-.9-.73.87.55.44-.23.77-.35-.67-.32.15-.14-.41-.59a11 11 0 0 1-2.08-1.29 6 6 0 0 0-1.26-1.27c-.48-.4-.95-.81-1.28-1.12s.24-.45-.08-.85.06.56-.46-.18h.11c-.27-.12-.92-1.36-1.45-1.25h.45a1 1 0 0 0-.37-.28c.09-.09 0-.3.28-.15-.17-.58-.8-.83-1.17-1.29 0 .14 0 .29.07.43a21.62 21.62 0 0 1-1.65-2.12l.18-.1a5.48 5.48 0 0 1-.44-.4c.24 0 0-.52-.26-.68.42.33.84.65 1.29.94.15.41-.48-.21-.49.12s.59 1 .84 1a1.33 1.33 0 0 0-.47-.45c.17-.26.48.16.79.25-.12-.13-.21-.39-.3-.37a3.51 3.51 0 0 1 .92.93c-.33-.24 0 .29-.17.22.22-.11.64.26 1.07.86.12.58 1 .92 1.54 1.58a2.76 2.76 0 0 1-1.29-.58c.26.48.39.45.66.93a2.07 2.07 0 0 1 1.24.39l-.11.16c.51.38.71.18 1.22.78a35.16 35.16 0 0 0 2.77 2.61l-.09.17c.72 0 1.59 1.12 2.34 1.41 1 .93 2.44 1.53 2.85 2.14l1.5.83 1.48.76 3 1.59-.49.07c.48 0 .18.27.58.43-.33-.43.66 0 1 0a8.72 8.72 0 0 0 3.21 1.19v.19c1 0 2 .78 3.1 1.22a1.15 1.15 0 0 0 .59.47 8.08 8.08 0 0 1 2 .18 18.82 18.82 0 0 1 2.37.94c2.65.29 5.18 1.23 7.92 1.47l.16.26a29.8 29.8 0 0 1 4.21.47 27.1 27.1 0 0 0 3.91.42l-.26.37c.7.18 1.63.05 1.47-.24.7.19 1.78 0 2.21.3.72.12.9-.12 1.5-.13a15.38 15.38 0 0 0 3.36.16h-.34c-.15.08-.17.24.18.27.51-.07 1.88.12 1.37-.33a10.88 10.88 0 0 0 2.43 0 8.39 8.39 0 0 1 2.41 0c-.13-.12.23-.16.38-.25a19.78 19.78 0 0 0 3.64-.19c.21 0-.31.24.22.2.3-.07 0-.16.36-.27 2-.41 4.21-.19 6.07-.55 3.27-.75 6.72-1.34 9.78-2.26v.1c.93-.64 2.52-.38 3.18-1.15.27 0 .93-.28.81 0 .73-.53 2.36-.53 3.41-1.3a1 1 0 0 0-.28.16c1.24-.27 2.19-.89 3.48-1.24-.11.08-.33.21-.33.31.54 0 1-.83 1.41-.53.26-.12.1-.29-.06-.21a62.86 62.86 0 0 0 8.15-4c2.07-.74.45.61 1.84-.46.16 0 0-.2.08-.12.54-.41 1.15 0 1.46-.44-.29-.16.21-.27.14-.43 1.27-.45 1.63-.35 2.47-1v.16c.92-.92 2.29-1.39 3-2.28 6-3.21 11.79-6.48 18-9.14 3.11-1.26 6.22-2.42 9.42-3.43a46.85 46.85 0 0 1 10-2 10.23 10.23 0 0 0 3.52-.1c-.07.06-.18.08-.06.13.08-.31 1.25-.09 1.41-.39a65.74 65.74 0 0 1 7.53.21c-.42 0-.65.23-.15.25l.53-.15.08.1c.34 0 .72-.14.39-.27.83 0 1.64.19 2.46.3s1.65.22 2.45.44a38.43 38.43 0 0 1 4.74 1.38c.77.28 1.55.55 2.31.85l2.24 1 1.12.5 1.08.58 2.17 1.14c.65.43 1.41 1 2.23 1.47l1.23.74 1.09.79a60.49 60.49 0 0 1 9.28 11.14 4.2 4.2 0 0 1-2.27-1.82zM724.55 149.37c0 .23.19.74-.22.48.09-.12.07-.45.22-.48z"/><path class="cls-5" d="M733.46 161.39s.13.18.15.23c-.15-.1-.37-.11-.44-.27.16.11.18.04.29.04zM736.51 163.79c-.13.08-.87-.32-1.28-.59zM739.24 166.24c.21.27.1.28-.25 0 .01-.03.15.01.25 0zM739.63 166.11a1.06 1.06 0 0 1 .44.43c.05-.11-.65-.28-.44-.43zM746.44 170.08c.17.07.59.14.69.35-.13-.18-.91-.22-.69-.35zM749.89 171.31a.78.78 0 0 0 .28.11c.18.14-.07.15-.24.09zM814.61 171.66l-.35.19.01-.14.34-.05zM840.59 159.62c.3-.26.29 0 .36 0-.3.15.05-.23-.36 0zM854.09 152.31l-.1.05-.08-.27.18.22zM769.53 184c-.5.05.25.25-.33.1a.22.22 0 0 1 .33-.1zM892.54 181.64a8 8 0 0 1-.95-2.54 10.18 10.18 0 0 0-.45-1.35 4 4 0 0 0-.67-1.2c-.12-.16.38-.11.08-.49a7.78 7.78 0 0 1-.9-1.15 10.82 10.82 0 0 1-.9-1.37c-.32-.47-.65-.95-1-1.45s-.66-.93-1-1.39h.25a1.33 1.33 0 0 0-.54-.37 1.76 1.76 0 0 1-.61-.32c0-.06.18 0 .16-.14-.22.11-.67-.39-.91-.37-.08-.18 0-.31-.08-.52l-.35.07c-.9.15-1.34-.94-2.32-1.06.06 0 .16 0 .13-.11-1.45-.4-3.13-1.06-4.71-1.42.08-.06.19-.2.12-.33-.15.24-.65.18-1.08.13-.13-.31-.78 0-1.24-.19l.06-.06c-.43.22-.52-.26-.88 0l-.2-.25c-.22.35-.49-.31-.83-.16v.08c-.3.06-.42-.15-.7-.12v-.05c-.64 0-1-.24-1 .06-.2-.27.62 0 .31-.42-2.12.08-4.26-.09-6.38 0-.24-.12-.4-.15-.45-.27-.21.07-.8.09-1 .25.07 0-.15-.14-.26-.15-.39-.1-.4.35-.83.23q.24-.14.15-.3a3.48 3.48 0 0 1-1.25.36c.07-.05.17-.09.14-.18-.44.3-.85 0-1.24.21l.13-.19c-.67-.16-.16.38-.73.31.13-.07.07-.13.09-.2a6.16 6.16 0 0 1-1.87.52.06.06 0 0 0 0-.07 11 11 0 0 0-1.78.32c-.24 0 0-.43-.58-.28.07.34-1 .31-.58.64a5.5 5.5 0 0 0-1.68.21c.21-.17-.32-.37.1-.48l-.36-.15c0-.15.34 0 .2-.17a5.71 5.71 0 0 1-1 .29 3.41 3.41 0 0 1-1.27.91c.27-.19-.25-.34-.06-.44l-.75.84c-.21.07-.1-.26-.39-.1 0 .09-.08.17-.16.26s-.86.28-1 0c-.13-.11.32-.15.06-.22-.39.1-.38.22-.76.31-.27 0-.73.32-.4.44.18 0-.12-.19.17-.15a1.74 1.74 0 0 1-1 .5c.12-.09.08-.17.11-.28a6.39 6.39 0 0 1-1.53.87c0 .16.14-.34.25-.28-.8 0-1.44.72-2.14.57.09-.06.11.21.09.17-.36.07-.41-.16-.61 0-.06-.12-.28.13-.51.24s-.08-.05.13-.12a6.49 6.49 0 0 1-2.38.85c0 .08-.36.47-.54.51v-.23c-.19-.07-.57.21-.66 0-.29.36 1.37-.68.92-.32-.18-.14-.59.55-.57.23-.35.13-.61.47-1 .39.11 0 .19-.38-.09-.27-.48.2-.11.14-.49.34l-.22.17c0 .21-.45.13-.19.29-.11-.15-.67.34-.74 0v-.28c-.21.09-.26.39-.38.56 0 0-.11 0-.12-.09.11.41-.52.15-.66.55-.5 0-1.15.4-1.45.23a1.86 1.86 0 0 1-1 .56c.07-.06.17-.11.16-.2-.29 0-.31.1-.51.24 0-.08-.58 0-.91-.09-.3.24-.1.41-.09.55-.45-.28-.88.6-1.4.39.1-.1.43-.37.11-.37-.45-.28-.53.51-1.11.51l.24.28c-.29-.13-.68.45-.74.1-.13.18-.64.11-.47.4-.93 0-2 .87-2.69.48-.1.09-.42.14-.3.28s.23-.22.35-.12a.15.15 0 0 0-.09.18c-.29 0-.5.07-.35-.28-.64 0-.41.74-1.19.87 0-.14-.08-.17-.29-.07l-.34.36c-.49.1-.37-.21-.45-.43-.25.12-.56.21-.62.42l-.41-.18c.3.13-.16.21-.27.3l.11-.09c-.08-.08-.36.07-.5.15.08.13.4.08.58.07-.1.14-.31.18-.44.36 0-.24-.47 0-.68 0s-.2.29-.27.3-.39.11-.26-.11c.07-.06.22.05.32-.09-.18 0-.23-.24-.5 0s.2.41-.3.42c.1-.09.1-.19.16-.3h-.46v.2c-.07 0 0-.06-.07-.08-.06.25-.64.27-.66.54-.21.09-.5 0-.71 0a.93.93 0 0 0-.77.34v-.05a1.32 1.32 0 0 0-.6.34c-.39 0-.35-.72-.66-.35-.35.12-.44.54-.26.62-.68.07-1.31.6-2 .46-.07.11 0 .15-.18.25-1 .19-1.91.83-2.78.63.25-.16 0-.21-.08-.32-.17.24-.32-.12-.32.22.08.17.08.27.37.27a3.71 3.71 0 0 1-1.76.39c.18 0 .07.14 0 .22 0-.3-.46-.23-.75 0v.19l-.25-.13c-.11.09 0 .41-.4.32a.31.31 0 0 0-.14-.16c-.29.23-.69.58-1.08.52l-.36-.19c-.15.07-.36.29-.08.3-.64 0-1 .06-1.29-.12a7.64 7.64 0 0 1-3.68 1.4v-.14c-.36-.06-.13.27-.38.23.08-.15-.31-.23-.08-.44-.5 0-.56.36-.85.49 0 .19.22-.17.21.07 0 .08-.68 0-.7.29-.14-.08-.09-.3 0-.42l-.26.18c-.42-.24.69-.72.24-1l-.26.1c-.3-.23.64-.47 0-.42-.26.18-.44.62-.15.69-.59.18-.16.69-.81.79-.21-.13.51-.13.34-.33-.35-.16-.59.23-.88.21.33 0 .12.36-.07.45-.35-.07.17-.3-.3-.24 0 .17-.46.37-.07.41-.11.38-.51 0-.71.31-.2-.22.38-.66-.16-.69.12.22-.58.44-.25.75-.21 0-.26-.22-.14-.4-.32-.09-.63.57-.81.11v.26a4.05 4.05 0 0 1-.42-.21c-.26 0-.77.45-.81.08-.07.05-.66.12-.4.35s.39-.26.65.06c-.3-.24-.52.12-.72.24v-.13c-.12.07-.41.08-.47.25.09-.1 0-.19-.08-.21l-.1.24c-.5.19-.18-.36-.67-.22l.36-.23c-.08.05-.28-.13-.51 0-.06.22-.2.48-.26.65-.27.13-.15-.21-.4 0l.33-.29c0-.08-.29-.29-.66-.24s-.57.43-.17.5c-.19 0-.47-.07-.34-.23-.42.12.08.21-.27.37-.17-.11-.66-.25-1-.41l.35-.38h-.26c.3-.31-.19-.19 0-.49a1 1 0 0 0-.53.19c.56.39-.5.69-.31 1.08-.68.2-.54-.95-1.2-.22.13.1-.18.45.25.28-.44 0-.25.46-.79.34.37-.21-.45-.39.08-.68 0 .14.31.07.39 0-.19-.14 0-.42-.44-.37-.27.06-.64.1-.57.31s.41-.06.26.19c-.53.13-.65-.22-.84.22a.35.35 0 0 1 .46.34l-.51.16.06-.16c-.65-.06-.16.3-.79.31l-.31-.29c.12-.28.91 0 .76-.38-.4 0-.52.24-.91.16.08 0 .2-.06.28-.11-.15 0-.34-.57-.88-.18-.29.16-.07.16-.06.33-.65.1-.83.28-1.24.34.06-.32-.74 0-.3-.34a1.37 1.37 0 0 0 1.36-.24c-.26-.36.51 0 .62-.39-.52 0-.52-.34-.62-.58a.71.71 0 0 0-.36.16c0 .23.14.22.17.45a2.45 2.45 0 0 0-1.43.4c-.2-.11-.15-.34.08-.37a10.3 10.3 0 0 1-2.07.06c.44.36-.72.12-.42.42.35.07.66.32.48.5-.22 0 0-.16-.1-.24-.27.22-.45-.31-.71 0 .63-.15.11-.47.21-.77-.44.19 0-.21-.43-.19a6.21 6.21 0 0 1-1.49.42 5.4 5.4 0 0 0-2.16 0c-.29-.14-.09-.48-.41-.53s.28.35-.28.21l.06-.07c-.17.08-1-.22-1.18.26l.17-.36c-.1 0-.2.05-.28.09s-.13-.22 0-.3c-.33-.25-.71 0-1.08 0l.23.22a10.34 10.34 0 0 1-1.67 0v-.21l-.37.11c.09-.2-.24-.34-.43-.17l1-.49c.26.13-.3.25-.14.46s.71.14.8-.06c-.21 0-.23 0-.4.09-.06-.29.27-.27.43-.46-.11 0-.27-.09-.29 0a1.41 1.41 0 0 1 .81-.14c-.25.1.14.18 0 .26 0-.26.39-.32.84-.24.33.31.86-.2 1.39-.12a1.67 1.67 0 0 1-.81.58c.33.13.37 0 .7.12.17-.19.28-.49.71-.61v.19c.39-.1.39-.39.89-.34a20.19 20.19 0 0 0 2.39.07v.19c.35-.42 1.21-.21 1.69-.41.84.14 1.79-.26 2.24 0a29.44 29.44 0 0 1 4.24-.58l-.23.31c.25-.24.19.14.46.07-.33-.19.33-.34.5-.53a3.79 3.79 0 0 0 2.11-.46v.19c.56-.43 1.32-.2 2.07-.27a.56.56 0 0 0 .48.17 3.26 3.26 0 0 1 1.14-.66 7.83 7.83 0 0 1 1.61 0c1.55-.74 3.26-.74 4.88-1.36l.17.2c1.52-.82 3.61-.82 4.93-1.41v.4c.46 0 1-.34.78-.57.47 0 1-.45 1.39-.21.46 0 .5-.31.85-.46a7.09 7.09 0 0 0 2-.51h-.21c-.07.11 0 .27.18.24.28-.19 1.17-.21.73-.57 1 0 2-.8 3-.71-.11-.1.1-.18.17-.29a7.89 7.89 0 0 0 2.21-.62c.14 0-.13.26.19.18.17-.11 0-.16.16-.3 1.18-.62 2.6-.55 3.71-1 1.94-.88 4.07-1.47 6-2.18v.1c.52-.55 1.62-.18 2-.86.18 0 .59-.17.54 0 .43-.42 1.51-.29 2.14-.85a.41.41 0 0 0-.17.11c.81-.07 1.38-.57 2.23-.68-.07.07-.2.15-.2.24.37.06.59-.63.91-.27.17-.07 0-.25 0-.2 1.76-.46 3.53-1.42 5.35-2.1 1.4-.18.31.68 1.25 0 .11.06 0-.18.05-.09.37-.25.77.27 1 0-.19-.23.14-.21.1-.37.87-.07 1.1.12 1.68-.27v.16c.64-.62 1.57-.63 2.09-1.26a96.55 96.55 0 0 1 12.4-2.93 54.49 54.49 0 0 1 12.66-.44 3.4 3.4 0 0 0 2.18.41c-.05.05-.12.06-.05.12.09-.3.78.07.93-.2 1.59.26 3.08.48 4.71.91-.27 0-.46.17-.15.23l.37-.11v.1c.22 0 .49-.05.3-.22a18 18 0 0 1 5.88 2.61 24.58 24.58 0 0 1 4.8 4.3c.26.45.69.89 1 1.41s.74 1 1.07 1.47a56.32 56.32 0 0 1 2.42 9 2.36 2.36 0 0 1-1.22-1.4zM770.12 184c.1.16.45.25.16.45-.02-.19-.2-.35-.16-.45z"/><path class="cls-5" d="M779.42 185.55c0-.05.14.06.17.08-.12 0-.22.15-.32.08.12-.02.1-.09.15-.16zM781.82 185.53c0 .14-.54.27-.84.3zM784.08 185.94c.21.1.16.17-.1.19.02-.07.02-.13.1-.19zM784.22 185.62a.5.5 0 0 1 .38.12c-.02-.11-.42.11-.38-.12zM789.09 185.54c.12 0 .36-.16.48 0-.13-.12-.57.22-.48 0zM791.31 185.07h.19c.08 0 0 .17-.1.2zM830.62 174.11l-.2.14-.01-.14h.21zM847.44 168.65c.21-.14.19.08.24.09-.21.07.03-.18-.24-.09zM856.64 166.08l-.07.02-.02-.29.09.27z"/><path class="cls-3" d="M827.32 42.52l-2.23-2.39 13.79-13.07 1.98 1.92"/><path class="cls-1" d="M512.83 6.92v93.68c0 8.82.82 14 2.46 17 3.28 6.36 10.05 9.84 19.48 9.84 12.5 0 20.5-6.15 21.73-16.6.41-3.08.41-5.13.41-12.71V6.92H586v95.94c0 13.53-.2 16.2-2.26 22.35-3.69 11.27-17.63 26.85-48.38 26.85-21.73 0-37.72-6.56-45.71-19.06-4.72-7.38-6.15-13.12-6.15-26.86V6.92zM654.18 6.92c17.43 0 26.45 2.66 35.06 10.25 8 7 11.68 15.17 11.68 25.42 0 9.64-3.28 17.84-9.63 23.78-4.1 3.9-6.56 5.33-13.12 7.38 17.63 5.13 28.29 17.22 28.29 35.88 0 19.68-12.3 38.13-37.31 39.36-4.51.2-10.46.41-18.25.41H606V6.92zm-19.88 57h17c6.77 0 9.84-.61 12.3-1.84 3.91-2.08 7.4-8.83 7.4-14.57 0-5.94-3.07-12.3-8.2-14.35-2.45-1-5.53-1.85-11.89-1.85H634.3zm.41 62.12h18.65c5.95 0 10.25-.82 13.33-3.28 4.3-3.28 7.38-9.84 7.38-16.61 0-8.2-4.1-15.58-10.46-17.43-3.48-1-5.74-1.22-11.07-1.22h-17.83z"/></svg>