<svg id="Layer_1" data-name="Layer 1" xmlns="http://www.w3.org/2000/svg" viewBox="0 0 500 327"><title>Artboard 1</title><path d="M167.3,4a.08.08,0,0,0,.08-.07.08.08,0,0,0-.08-.08.07.07,0,0,0-.07.08A.07.07,0,0,0,167.3,4Z"/><path d="M180.68,4.06a.11.11,0,0,0,.11-.11.11.11,0,1,0-.22,0A.11.11,0,0,0,180.68,4.06Z"/><path d="M194.05,4.09A.15.15,0,0,0,194.2,4a.15.15,0,1,0-.3,0A.15.15,0,0,0,194.05,4.09Z"/><circle cx="207.42" cy="3.95" r="0.19"/><circle cx="220.8" cy="3.95" r="0.19"/><path d="M234.17,4.13a.19.19,0,1,0,0-.37A.18.18,0,0,0,234,4,.18.18,0,0,0,234.17,4.13Z"/><path d="M247.55,4.09a.14.14,0,0,0,.14-.14.14.14,0,0,0-.14-.15.14.14,0,0,0-.15.15A.14.14,0,0,0,247.55,4.09Z"/><path d="M260.92,4.06A.11.11,0,0,0,261,4a.11.11,0,1,0-.22,0A.11.11,0,0,0,260.92,4.06Z"/><path d="M274.29,4a.07.07,0,0,0,.08-.07.07.07,0,0,0-.08-.08.07.07,0,0,0-.07.08A.07.07,0,0,0,274.29,4Z"/><path d="M287.67,4a0,0,0,0,0,0,0s0,0,0,0a0,0,0,0,0,0,0S287.65,4,287.67,4Z"/><path d="M120.49,17.36a0,0,0,1,0,0-.08s0,0,0,0S120.47,17.36,120.49,17.36Z"/><path d="M133.87,17.43a.11.11,0,1,0-.11-.11A.11.11,0,0,0,133.87,17.43Z"/><path d="M147.24,17.54a.22.22,0,0,0,0-.44.22.22,0,0,0,0,.44Z"/><path d="M160.62,17.65a.34.34,0,0,0,0-.67.34.34,0,1,0,0,.67Z"/><path d="M174,17.76a.45.45,0,1,0-.44-.44A.45.45,0,0,0,174,17.76Z"/><path d="M187.36,17.84a.52.52,0,0,0,0-1,.52.52,0,1,0,0,1Z"/><path d="M200.74,17.91a.59.59,0,1,0,0-1.18.59.59,0,1,0,0,1.18Z"/><path d="M214.11,18a.63.63,0,1,0-.63-.63A.63.63,0,0,0,214.11,18Z"/><path d="M227.48,18a.63.63,0,1,0-.63-.63A.64.64,0,0,0,227.48,18Z"/><path d="M240.86,17.91a.59.59,0,1,0-.59-.59A.58.58,0,0,0,240.86,17.91Z"/><path d="M254.23,17.84a.52.52,0,1,0,0-1,.52.52,0,0,0,0,1Z"/><path d="M267.61,17.73a.41.41,0,0,0,.4-.41.41.41,0,1,0-.81,0A.41.41,0,0,0,267.61,17.73Z"/><path d="M281,17.62a.31.31,0,0,0,.3-.3.3.3,0,0,0-.6,0A.31.31,0,0,0,281,17.62Z"/><path d="M294.35,17.5a.18.18,0,0,0,.19-.18.19.19,0,1,0-.37,0A.18.18,0,0,0,294.35,17.5Z"/><path d="M307.73,17.43a.11.11,0,1,0-.11-.11A.11.11,0,0,0,307.73,17.43Z"/><path d="M321.1,17.36a0,0,0,1,0,0-.08s0,0,0,0S321.08,17.36,321.1,17.36Z"/><path d="M113.81,30.8a.11.11,0,1,0-.11-.11A.11.11,0,0,0,113.81,30.8Z"/><path d="M127.18,31a.25.25,0,0,0,.26-.26.26.26,0,0,0-.26-.26.26.26,0,0,0-.26.26A.26.26,0,0,0,127.18,31Z"/><path d="M140.55,31.1a.41.41,0,1,0,0-.81.41.41,0,0,0,0,.81Z"/><path d="M153.93,31.29a.6.6,0,1,0-.59-.6A.59.59,0,0,0,153.93,31.29Z"/><path d="M167.3,31.51a.82.82,0,0,0,.82-.82.82.82,0,1,0-.82.82Z"/><path d="M180.68,31.66a1,1,0,1,0-1-1A1,1,0,0,0,180.68,31.66Z"/><path d="M194.05,31.81a1.12,1.12,0,1,0-1.11-1.12A1.11,1.11,0,0,0,194.05,31.81Z"/><path d="M207.42,31.88a1.19,1.19,0,1,0-1.18-1.19A1.19,1.19,0,0,0,207.42,31.88Z"/><path d="M220.8,32a1.26,1.26,0,1,0-1.26-1.26A1.26,1.26,0,0,0,220.8,32Z"/><path d="M234.17,32a1.26,1.26,0,1,0,0-2.52,1.26,1.26,0,1,0,0,2.52Z"/><path d="M247.55,31.88a1.19,1.19,0,1,0-1.19-1.19A1.18,1.18,0,0,0,247.55,31.88Z"/><path d="M260.92,31.81a1.12,1.12,0,1,0-1.11-1.12A1.12,1.12,0,0,0,260.92,31.81Z"/><path d="M274.29,31.66a1,1,0,1,0,0-1.93,1,1,0,0,0,0,1.93Z"/><path d="M287.67,31.47a.78.78,0,1,0-.78-.78A.78.78,0,0,0,287.67,31.47Z"/><path d="M301,31.29a.6.6,0,1,0,0-1.19.6.6,0,0,0,0,1.19Z"/><path d="M314.41,31.1a.41.41,0,1,0,0-.81.41.41,0,0,0,0,.81Z"/><path d="M327.79,31a.26.26,0,0,0,.26-.26.26.26,0,0,0-.52,0A.26.26,0,0,0,327.79,31Z"/><path d="M341.16,30.8a.11.11,0,1,0-.11-.11A.11.11,0,0,0,341.16,30.8Z"/><path d="M80.37,44.1s0,0,0,0a0,0,0,0,0,0,0s0,0,0,0A0,0,0,0,0,80.37,44.1Z"/><path d="M93.75,44.21a.15.15,0,0,0,.15-.14.15.15,0,0,0-.15-.15.14.14,0,0,0-.15.15A.14.14,0,0,0,93.75,44.21Z"/><path d="M107.12,44.4a.34.34,0,1,0-.33-.33A.33.33,0,0,0,107.12,44.4Z"/><path d="M120.49,44.62a.56.56,0,1,0-.55-.55A.56.56,0,0,0,120.49,44.62Z"/><path d="M133.87,44.92a.85.85,0,0,0,.85-.85.85.85,0,1,0-1.7,0A.85.85,0,0,0,133.87,44.92Z"/><path d="M147.24,45.18a1.12,1.12,0,1,0-1.11-1.11A1.12,1.12,0,0,0,147.24,45.18Z"/><path d="M160.62,45.44a1.38,1.38,0,1,0-1.37-1.37A1.38,1.38,0,0,0,160.62,45.44Z"/><path d="M174,45.7a1.64,1.64,0,1,0-1.63-1.63A1.63,1.63,0,0,0,174,45.7Z"/><path d="M187.36,45.88a1.82,1.82,0,1,0-1.81-1.81A1.81,1.81,0,0,0,187.36,45.88Z"/><path d="M200.74,46a2,2,0,1,0-2-2A2,2,0,0,0,200.74,46Z"/><path d="M214.11,46.11a2,2,0,1,0-2-2A2,2,0,0,0,214.11,46.11Z"/><path d="M227.48,46.11a2,2,0,1,0-2-2A2.05,2.05,0,0,0,227.48,46.11Z"/><path d="M240.86,46.07a2,2,0,1,0-2-2A2,2,0,0,0,240.86,46.07Z"/><path d="M254.23,45.92a1.86,1.86,0,1,0-1.85-1.85A1.85,1.85,0,0,0,254.23,45.92Z"/><path d="M267.61,45.74a1.67,1.67,0,1,0-1.67-1.67A1.66,1.66,0,0,0,267.61,45.74Z"/><path d="M281,45.51a1.45,1.45,0,1,0-1.45-1.44A1.44,1.44,0,0,0,281,45.51Z"/><path d="M294.35,45.25a1.19,1.19,0,1,0-1.18-1.18A1.18,1.18,0,0,0,294.35,45.25Z"/><path d="M307.73,45a.89.89,0,1,0-.89-.89A.89.89,0,0,0,307.73,45Z"/><path d="M321.1,44.7a.63.63,0,1,0-.63-.63A.63.63,0,0,0,321.1,44.7Z"/><path d="M334.48,44.47a.41.41,0,0,0,0-.81.41.41,0,1,0,0,.81Z"/><path d="M347.85,44.25a.18.18,0,0,0,.18-.18.18.18,0,0,0-.18-.19.19.19,0,1,0,0,.37Z"/><path d="M361.22,44.1s0,0,0,0a0,0,0,0,0,0,0s0,0,0,0A0,0,0,0,0,361.22,44.1Z"/><path d="M87.06,57.59a.15.15,0,1,0-.15-.15A.15.15,0,0,0,87.06,57.59Z"/><path d="M100.44,57.81a.37.37,0,1,0-.38-.37A.38.38,0,0,0,100.44,57.81Z"/><path d="M113.81,58.07a.63.63,0,1,0-.63-.63A.63.63,0,0,0,113.81,58.07Z"/><circle cx="127.18" cy="57.44" r="0.96"/><path d="M140.55,58.78a1.34,1.34,0,1,0-1.33-1.34A1.34,1.34,0,0,0,140.55,58.78Z"/><path d="M153.93,59.15a1.71,1.71,0,1,0-1.71-1.71A1.71,1.71,0,0,0,153.93,59.15Z"/><path d="M167.3,59.48a2,2,0,1,0-2-2A2,2,0,0,0,167.3,59.48Z"/><path d="M180.68,59.81a2.37,2.37,0,1,0-2.38-2.37A2.37,2.37,0,0,0,180.68,59.81Z"/><path d="M194.05,60.11a2.67,2.67,0,1,0-2.67-2.67A2.68,2.68,0,0,0,194.05,60.11Z"/><path d="M207.42,60.3a2.86,2.86,0,1,0-2.85-2.86A2.86,2.86,0,0,0,207.42,60.3Z"/><path d="M220.8,60.44a3,3,0,1,0-3-3A3,3,0,0,0,220.8,60.44Z"/><path d="M234.17,60.44a3,3,0,1,0-3-3A3,3,0,0,0,234.17,60.44Z"/><path d="M247.55,60.37a2.93,2.93,0,1,0-2.93-2.93A2.93,2.93,0,0,0,247.55,60.37Z"/><path d="M260.92,60.22a2.78,2.78,0,1,0-2.78-2.78A2.77,2.77,0,0,0,260.92,60.22Z"/><path d="M274.29,60a2.52,2.52,0,1,0-2.52-2.52A2.52,2.52,0,0,0,274.29,60Z"/><path d="M287.67,59.67a2.23,2.23,0,1,0-2.23-2.23A2.22,2.22,0,0,0,287.67,59.67Z"/><path d="M301,59.33a1.89,1.89,0,1,0-1.89-1.89A1.89,1.89,0,0,0,301,59.33Z"/><path d="M314.41,59a1.52,1.52,0,1,0-1.51-1.52A1.53,1.53,0,0,0,314.41,59Z"/><path d="M327.79,58.59a1.15,1.15,0,1,0-1.15-1.15A1.16,1.16,0,0,0,327.79,58.59Z"/><path d="M341.16,58.26a.82.82,0,0,0,0-1.64.82.82,0,0,0,0,1.64Z"/><path d="M354.54,57.92a.48.48,0,1,0-.49-.48A.48.48,0,0,0,354.54,57.92Z"/><path d="M367.91,57.7a.26.26,0,1,0-.26-.26A.26.26,0,0,0,367.91,57.7Z"/><path d="M381.28,57.51a.07.07,0,1,0,0-.14.07.07,0,0,0,0,.14Z"/><path d="M67,70.89a.07.07,0,0,0,.07-.08.07.07,0,1,0-.14,0A.07.07,0,0,0,67,70.89Z"/><path d="M80.37,71.11a.3.3,0,1,0,0-.59.3.3,0,0,0,0,.59Z"/><path d="M93.75,71.41a.6.6,0,0,0,0-1.19.6.6,0,1,0,0,1.19Z"/><path d="M107.12,71.78a1,1,0,1,0-1-1A1,1,0,0,0,107.12,71.78Z"/><circle cx="120.49" cy="70.81" r="1.41"/><path d="M133.87,72.67A1.86,1.86,0,1,0,132,70.81,1.85,1.85,0,0,0,133.87,72.67Z"/><path d="M147.24,73.11a2.3,2.3,0,1,0-2.3-2.3A2.3,2.3,0,0,0,147.24,73.11Z"/><path d="M160.62,73.6a2.79,2.79,0,1,0-2.78-2.79A2.79,2.79,0,0,0,160.62,73.6Z"/><path d="M174,74a3.23,3.23,0,1,0-3.23-3.23A3.23,3.23,0,0,0,174,74Z"/><path d="M187.36,74.41a3.6,3.6,0,1,0-3.59-3.6A3.6,3.6,0,0,0,187.36,74.41Z"/><path d="M200.74,74.71a3.9,3.9,0,1,0-3.9-3.9A3.9,3.9,0,0,0,200.74,74.71Z"/><path d="M214.11,74.89A4.08,4.08,0,1,0,210,70.81,4.08,4.08,0,0,0,214.11,74.89Z"/><circle cx="227.48" cy="70.81" r="4.12"/><path d="M240.86,74.86a4,4,0,1,0-4-4A4,4,0,0,0,240.86,74.86Z"/><path d="M254.23,74.67a3.86,3.86,0,1,0-3.85-3.86A3.86,3.86,0,0,0,254.23,74.67Z"/><path d="M267.61,74.34a3.53,3.53,0,1,0-3.53-3.53A3.53,3.53,0,0,0,267.61,74.34Z"/><path d="M281,74a3.16,3.16,0,1,0-3.15-3.16A3.15,3.15,0,0,0,281,74Z"/><path d="M294.35,73.52a2.71,2.71,0,1,0-2.7-2.71A2.71,2.71,0,0,0,294.35,73.52Z"/><path d="M307.73,73a2.23,2.23,0,1,0-2.23-2.23A2.22,2.22,0,0,0,307.73,73Z"/><path d="M321.1,72.56a1.75,1.75,0,1,0-1.74-1.75A1.75,1.75,0,0,0,321.1,72.56Z"/><path d="M334.48,72.11a1.3,1.3,0,1,0-1.3-1.3A1.3,1.3,0,0,0,334.48,72.11Z"/><path d="M347.85,71.7a.89.89,0,1,0-.89-.89A.89.89,0,0,0,347.85,71.7Z"/><path d="M361.22,71.33a.52.52,0,1,0-.52-.52A.52.52,0,0,0,361.22,71.33Z"/><path d="M374.6,71.07a.26.26,0,0,0,.26-.26.26.26,0,0,0-.26-.26.26.26,0,0,0-.26.26A.25.25,0,0,0,374.6,71.07Z"/><path d="M388,70.89a.07.07,0,0,0,.07-.08.07.07,0,0,0-.14,0A.07.07,0,0,0,388,70.89Z"/><path d="M60.31,84.22s0,0,0,0a0,0,0,0,0,0,0s0,0,0,0A0,0,0,0,0,60.31,84.22Z"/><circle cx="73.69" cy="84.19" r="0.19"/><path d="M87.06,84.67a.48.48,0,0,0,.48-.48.48.48,0,0,0-1,0A.48.48,0,0,0,87.06,84.67Z"/><path d="M100.44,85a.85.85,0,0,0,.85-.85.86.86,0,1,0-.85.85Z"/><circle cx="113.81" cy="84.19" r="1.3"/><path d="M127.18,86a1.82,1.82,0,1,0-1.81-1.81A1.81,1.81,0,0,0,127.18,86Z"/><path d="M140.55,86.56a2.38,2.38,0,1,0-2.37-2.37A2.37,2.37,0,0,0,140.55,86.56Z"/><path d="M153.93,87.15a3,3,0,1,0-3-3A3,3,0,0,0,153.93,87.15Z"/><circle cx="167.3" cy="84.19" r="3.52"/><path d="M180.68,88.27a4.08,4.08,0,1,0-4.08-4.08A4.08,4.08,0,0,0,180.68,88.27Z"/><path d="M194.05,88.79a4.6,4.6,0,1,0-4.6-4.6A4.6,4.6,0,0,0,194.05,88.79Z"/><path d="M207.42,89.19a5,5,0,1,0-5-5A5,5,0,0,0,207.42,89.19Z"/><path d="M220.8,89.45a5.27,5.27,0,1,0-5.27-5.26A5.25,5.25,0,0,0,220.8,89.45Z"/><path d="M234.17,89.56a5.38,5.38,0,1,0-5.38-5.37A5.37,5.37,0,0,0,234.17,89.56Z"/><path d="M247.55,89.45a5.27,5.27,0,1,0-5.27-5.26A5.26,5.26,0,0,0,247.55,89.45Z"/><path d="M260.92,89.19a5,5,0,1,0-5-5A5,5,0,0,0,260.92,89.19Z"/><path d="M274.29,88.82a4.64,4.64,0,1,0-4.63-4.63A4.63,4.63,0,0,0,274.29,88.82Z"/><path d="M287.67,88.34a4.16,4.16,0,1,0-4.16-4.15A4.15,4.15,0,0,0,287.67,88.34Z"/><path d="M301,87.78a3.6,3.6,0,1,0-3.6-3.59A3.6,3.6,0,0,0,301,87.78Z"/><circle cx="314.41" cy="84.19" r="3"/><path d="M327.79,86.6a2.41,2.41,0,1,0-2.41-2.41A2.41,2.41,0,0,0,327.79,86.6Z"/><path d="M341.16,86a1.86,1.86,0,1,0-1.85-1.85A1.85,1.85,0,0,0,341.16,86Z"/><path d="M354.54,85.52a1.34,1.34,0,1,0-1.34-1.33A1.33,1.33,0,0,0,354.54,85.52Z"/><path d="M367.91,85.08a.89.89,0,1,0-.89-.89A.89.89,0,0,0,367.91,85.08Z"/><path d="M381.28,84.67a.49.49,0,0,0,.49-.48.49.49,0,1,0-.49.48Z"/><path d="M394.66,84.41a.22.22,0,0,0,.22-.22.22.22,0,0,0-.22-.22.22.22,0,0,0-.23.22A.23.23,0,0,0,394.66,84.41Z"/><path d="M408,84.22s0,0,0,0a0,0,0,0,0,0,0s0,0,0,0A0,0,0,0,0,408,84.22Z"/><path d="M53.63,97.64a.08.08,0,0,0,.07-.08.07.07,0,0,0-.07-.07.08.08,0,0,0-.08.07A.09.09,0,0,0,53.63,97.64Z"/><path d="M67,97.86a.3.3,0,0,0,.3-.3.3.3,0,0,0-.6,0A.3.3,0,0,0,67,97.86Z"/><path d="M80.37,98.19a.63.63,0,0,0,0-1.26.63.63,0,1,0,0,1.26Z"/><path d="M93.75,98.64a1.08,1.08,0,1,0-1.08-1.08A1.07,1.07,0,0,0,93.75,98.64Z"/><circle cx="107.12" cy="97.56" r="1.59"/><path d="M120.49,99.75a2.19,2.19,0,1,0-2.18-2.19A2.19,2.19,0,0,0,120.49,99.75Z"/><path d="M133.87,100.42A2.86,2.86,0,1,0,131,97.56,2.86,2.86,0,0,0,133.87,100.42Z"/><path d="M147.24,101.09a3.53,3.53,0,1,0-3.52-3.53A3.53,3.53,0,0,0,147.24,101.09Z"/><path d="M160.62,101.79a4.23,4.23,0,1,0-4.23-4.23A4.22,4.22,0,0,0,160.62,101.79Z"/><path d="M174,102.53a5,5,0,1,0-5-5A5,5,0,0,0,174,102.53Z"/><path d="M187.36,103.16a5.6,5.6,0,1,0-5.6-5.6A5.6,5.6,0,0,0,187.36,103.16Z"/><path d="M200.74,103.72a6.16,6.16,0,1,0-6.16-6.16A6.15,6.15,0,0,0,200.74,103.72Z"/><circle cx="214.11" cy="97.56" r="6.56"/><path d="M227.48,104.27a6.71,6.71,0,1,0-6.71-6.71A6.71,6.71,0,0,0,227.48,104.27Z"/><path d="M240.86,104.2a6.64,6.64,0,1,0-6.64-6.64A6.64,6.64,0,0,0,240.86,104.2Z"/><path d="M254.23,103.9a6.34,6.34,0,1,0-6.34-6.34A6.34,6.34,0,0,0,254.23,103.9Z"/><path d="M267.61,103.38a5.82,5.82,0,1,0-5.83-5.82A5.82,5.82,0,0,0,267.61,103.38Z"/><path d="M281,102.75a5.19,5.19,0,1,0-5.19-5.19A5.19,5.19,0,0,0,281,102.75Z"/><circle cx="294.35" cy="97.56" r="4.49"/><path d="M307.73,101.34A3.78,3.78,0,1,0,304,97.56,3.78,3.78,0,0,0,307.73,101.34Z"/><path d="M321.1,100.64A3.08,3.08,0,1,0,318,97.56,3.08,3.08,0,0,0,321.1,100.64Z"/><path d="M334.48,100a2.41,2.41,0,1,0-2.42-2.41A2.41,2.41,0,0,0,334.48,100Z"/><circle cx="347.85" cy="97.56" r="1.78"/><path d="M361.22,98.82A1.26,1.26,0,1,0,360,97.56,1.25,1.25,0,0,0,361.22,98.82Z"/><path d="M374.6,98.34a.78.78,0,1,0-.78-.78A.78.78,0,0,0,374.6,98.34Z"/><path d="M388,98a.41.41,0,0,0,.41-.41.41.41,0,0,0-.41-.41.42.42,0,0,0-.41.41A.41.41,0,0,0,388,98Z"/><path d="M401.34,97.71a.15.15,0,1,0,0-.3.15.15,0,0,0,0,.3Z"/><path d="M60.31,111.05a.11.11,0,0,0,.11-.12.11.11,0,0,0-.22,0A.11.11,0,0,0,60.31,111.05Z"/><path d="M73.69,111.31a.38.38,0,0,0,0-.75.38.38,0,0,0,0,.75Z"/><path d="M87.06,111.68a.75.75,0,1,0-.74-.75A.74.74,0,0,0,87.06,111.68Z"/><path d="M100.44,112.2a1.27,1.27,0,1,0-1.27-1.27A1.26,1.26,0,0,0,100.44,112.2Z"/><path d="M113.81,112.75a1.82,1.82,0,1,0-1.82-1.82A1.82,1.82,0,0,0,113.81,112.75Z"/><path d="M127.18,113.42a2.49,2.49,0,1,0-2.48-2.49A2.48,2.48,0,0,0,127.18,113.42Z"/><path d="M140.55,114.16a3.23,3.23,0,1,0-3.22-3.23A3.22,3.22,0,0,0,140.55,114.16Z"/><path d="M153.93,114.94a4,4,0,1,0-4-4A4,4,0,0,0,153.93,114.94Z"/><path d="M167.3,115.79a4.86,4.86,0,1,0-4.86-4.86A4.85,4.85,0,0,0,167.3,115.79Z"/><path d="M180.68,116.65a5.72,5.72,0,1,0-5.72-5.72A5.72,5.72,0,0,0,180.68,116.65Z"/><path d="M194.05,117.46a6.53,6.53,0,1,0-6.53-6.53A6.53,6.53,0,0,0,194.05,117.46Z"/><path d="M207.42,117.83a6.9,6.9,0,1,0-6.89-6.9A6.9,6.9,0,0,0,207.42,117.83Z"/><path d="M220.8,117.83a6.9,6.9,0,1,0-6.9-6.9A6.9,6.9,0,0,0,220.8,117.83Z"/><path d="M234.17,117.83a6.9,6.9,0,1,0-6.9-6.9A6.9,6.9,0,0,0,234.17,117.83Z"/><path d="M247.55,117.83a6.9,6.9,0,1,0-6.9-6.9A6.89,6.89,0,0,0,247.55,117.83Z"/><path d="M260.92,117.83a6.9,6.9,0,1,0-6.9-6.9A6.9,6.9,0,0,0,260.92,117.83Z"/><path d="M274.29,117.83a6.9,6.9,0,1,0-6.89-6.9A6.9,6.9,0,0,0,274.29,117.83Z"/><path d="M287.67,117.17a6.24,6.24,0,1,0-6.23-6.24A6.23,6.23,0,0,0,287.67,117.17Z"/><path d="M301,116.31a5.38,5.38,0,1,0-5.38-5.38A5.38,5.38,0,0,0,301,116.31Z"/><path d="M314.41,115.46a4.53,4.53,0,1,0-4.52-4.53A4.53,4.53,0,0,0,314.41,115.46Z"/><path d="M327.79,114.64a3.71,3.71,0,1,0-3.71-3.71A3.71,3.71,0,0,0,327.79,114.64Z"/><path d="M341.16,113.87a2.93,2.93,0,1,0-2.93-2.94A2.94,2.94,0,0,0,341.16,113.87Z"/><path d="M354.54,113.16a2.23,2.23,0,1,0-2.23-2.23A2.22,2.22,0,0,0,354.54,113.16Z"/><path d="M367.91,112.53a1.6,1.6,0,1,0-1.6-1.6A1.59,1.59,0,0,0,367.91,112.53Z"/><path d="M381.28,112a1,1,0,1,0-1-1A1,1,0,0,0,381.28,112Z"/><path d="M394.66,111.53a.6.6,0,0,0,0-1.19.6.6,0,1,0,0,1.19Z"/><path d="M408,111.2a.26.26,0,0,0,.26-.27.25.25,0,0,0-.26-.25.26.26,0,0,0-.26.25A.27.27,0,0,0,408,111.2Z"/><path d="M421.4,111s0,0,0,0,0,0,0,0a0,0,0,0,0,0,0S421.38,111,421.4,111Z"/><path d="M53.63,124.42a.11.11,0,0,0,0-.22.11.11,0,0,0,0,.22Z"/><path d="M67,124.72a.41.41,0,0,0,.41-.41.41.41,0,0,0-.82,0A.41.41,0,0,0,67,124.72Z"/><path d="M80.37,125.12a.81.81,0,0,0,.82-.81.82.82,0,1,0-1.63,0A.81.81,0,0,0,80.37,125.12Z"/><path d="M93.75,125.64a1.34,1.34,0,0,0,0-2.67,1.34,1.34,0,1,0,0,2.67Z"/><path d="M107.12,126.24a1.93,1.93,0,1,0-1.93-1.93A1.93,1.93,0,0,0,107.12,126.24Z"/><circle cx="120.49" cy="124.31" r="2.63"/><path d="M133.87,127.76a3.45,3.45,0,1,0-3.45-3.45A3.45,3.45,0,0,0,133.87,127.76Z"/><circle cx="147.24" cy="124.31" r="4.3"/><path d="M160.62,129.57a5.27,5.27,0,1,0-5.27-5.26A5.26,5.26,0,0,0,160.62,129.57Z"/><path d="M174,130.54a6.23,6.23,0,1,0-6.23-6.23A6.23,6.23,0,0,0,174,130.54Z"/><path d="M187.36,131.21a6.9,6.9,0,1,0-6.89-6.9A6.9,6.9,0,0,0,187.36,131.21Z"/><path d="M200.74,131.21a6.9,6.9,0,1,0-6.9-6.9A6.9,6.9,0,0,0,200.74,131.21Z"/><path d="M214.11,131.21a6.9,6.9,0,1,0-6.9-6.9A6.9,6.9,0,0,0,214.11,131.21Z"/><path d="M227.48,131.21a6.9,6.9,0,1,0-6.89-6.9A6.89,6.89,0,0,0,227.48,131.21Z"/><path d="M240.86,131.21a6.9,6.9,0,1,0-6.9-6.9A6.9,6.9,0,0,0,240.86,131.21Z"/><path d="M254.23,131.21a6.9,6.9,0,1,0-6.89-6.9A6.9,6.9,0,0,0,254.23,131.21Z"/><path d="M267.61,131.21a6.9,6.9,0,1,0-6.9-6.9A6.9,6.9,0,0,0,267.61,131.21Z"/><path d="M281,131.21a6.9,6.9,0,1,0-6.9-6.9A6.9,6.9,0,0,0,281,131.21Z"/><path d="M294.35,130.43a6.12,6.12,0,1,0-6.12-6.12A6.12,6.12,0,0,0,294.35,130.43Z"/><path d="M307.73,129.43a5.12,5.12,0,1,0-5.12-5.12A5.11,5.11,0,0,0,307.73,129.43Z"/><path d="M321.1,128.5a4.19,4.19,0,1,0-4.19-4.19A4.19,4.19,0,0,0,321.1,128.5Z"/><path d="M334.48,127.65a3.34,3.34,0,1,0-3.34-3.34A3.34,3.34,0,0,0,334.48,127.65Z"/><circle cx="347.85" cy="124.31" r="2.56"/><path d="M361.22,126.2a1.89,1.89,0,1,0-1.89-1.89A1.89,1.89,0,0,0,361.22,126.2Z"/><path d="M374.6,125.57a1.26,1.26,0,1,0-1.26-1.26A1.26,1.26,0,0,0,374.6,125.57Z"/><path d="M388,125.05a.74.74,0,1,0-.74-.74A.74.74,0,0,0,388,125.05Z"/><path d="M401.34,124.68a.37.37,0,0,0,.37-.37.36.36,0,0,0-.37-.37.37.37,0,0,0-.37.37A.38.38,0,0,0,401.34,124.68Z"/><path d="M414.72,124.42a.11.11,0,1,0-.11-.11A.11.11,0,0,0,414.72,124.42Z"/><path d="M60.31,137.79a.11.11,0,1,0-.11-.11A.11.11,0,0,0,60.31,137.79Z"/><path d="M73.69,138.09a.41.41,0,0,0,.41-.41.42.42,0,0,0-.41-.41.41.41,0,0,0-.41.41A.41.41,0,0,0,73.69,138.09Z"/><path d="M87.06,138.5a.82.82,0,0,0,.82-.82.82.82,0,0,0-1.64,0A.82.82,0,0,0,87.06,138.5Z"/><path d="M100.44,139a1.34,1.34,0,1,0-1.34-1.34A1.34,1.34,0,0,0,100.44,139Z"/><path d="M113.81,139.65a2,2,0,1,0-2-2A2,2,0,0,0,113.81,139.65Z"/><path d="M127.18,140.35a2.67,2.67,0,1,0-2.67-2.67A2.66,2.66,0,0,0,127.18,140.35Z"/><path d="M140.55,141.17a3.49,3.49,0,1,0-3.48-3.49A3.49,3.49,0,0,0,140.55,141.17Z"/><path d="M153.93,142.06a4.38,4.38,0,1,0-4.38-4.38A4.38,4.38,0,0,0,153.93,142.06Z"/><path d="M167.3,143.06a5.38,5.38,0,1,0-5.37-5.38A5.38,5.38,0,0,0,167.3,143.06Z"/><path d="M180.68,144.1a6.42,6.42,0,1,0-6.42-6.42A6.41,6.41,0,0,0,180.68,144.1Z"/><path d="M194.05,144.58a6.9,6.9,0,1,0-6.9-6.9A6.9,6.9,0,0,0,194.05,144.58Z"/><path d="M207.42,144.58a6.9,6.9,0,1,0-6.89-6.9A6.9,6.9,0,0,0,207.42,144.58Z"/><path d="M220.8,144.58a6.9,6.9,0,1,0-6.9-6.9A6.9,6.9,0,0,0,220.8,144.58Z"/><path d="M234.17,144.58a6.9,6.9,0,1,0-6.9-6.9A6.9,6.9,0,0,0,234.17,144.58Z"/><path d="M247.55,144.58a6.9,6.9,0,1,0-6.9-6.9A6.89,6.89,0,0,0,247.55,144.58Z"/><path d="M260.92,144.58a6.9,6.9,0,1,0-6.9-6.9A6.9,6.9,0,0,0,260.92,144.58Z"/><path d="M274.29,144.58a6.9,6.9,0,1,0-6.89-6.9A6.9,6.9,0,0,0,274.29,144.58Z"/><path d="M287.67,144.58a6.9,6.9,0,1,0-6.9-6.9A6.9,6.9,0,0,0,287.67,144.58Z"/><path d="M301,144.29a6.61,6.61,0,1,0-6.6-6.61A6.6,6.6,0,0,0,301,144.29Z"/><path d="M314.41,143.21a5.53,5.53,0,1,0-5.52-5.53A5.53,5.53,0,0,0,314.41,143.21Z"/><path d="M327.79,142.21a4.53,4.53,0,1,0-4.53-4.53A4.52,4.52,0,0,0,327.79,142.21Z"/><path d="M341.16,141.32a3.64,3.64,0,1,0-3.63-3.64A3.64,3.64,0,0,0,341.16,141.32Z"/><path d="M354.54,140.46a2.78,2.78,0,1,0-2.78-2.78A2.78,2.78,0,0,0,354.54,140.46Z"/><path d="M367.91,139.76a2.08,2.08,0,1,0-2.08-2.08A2.08,2.08,0,0,0,367.91,139.76Z"/><path d="M381.28,139.09a1.41,1.41,0,1,0-1.41-1.41A1.41,1.41,0,0,0,381.28,139.09Z"/><path d="M394.66,138.57a.89.89,0,1,0-.89-.89A.89.89,0,0,0,394.66,138.57Z"/><path d="M408,138.13a.45.45,0,1,0,0-.89.45.45,0,0,0,0,.89Z"/><path d="M421.4,137.83a.15.15,0,0,0,.15-.15.14.14,0,0,0-.15-.14.14.14,0,0,0-.14.14A.15.15,0,0,0,421.4,137.83Z"/><path d="M53.63,151.13a.07.07,0,0,0,.07-.07.08.08,0,0,0-.07-.08.09.09,0,0,0-.08.08A.08.08,0,0,0,53.63,151.13Z"/><path d="M67,151.39a.34.34,0,0,0,0-.67.34.34,0,1,0,0,.67Z"/><path d="M80.37,151.8a.74.74,0,0,0,.74-.74.74.74,0,1,0-1.48,0A.74.74,0,0,0,80.37,151.8Z"/><path d="M93.75,152.32a1.26,1.26,0,1,0,0-2.52,1.26,1.26,0,0,0,0,2.52Z"/><path d="M107.12,152.91a1.86,1.86,0,1,0-1.85-1.85A1.85,1.85,0,0,0,107.12,152.91Z"/><path d="M120.49,153.62a2.56,2.56,0,1,0-2.55-2.56A2.56,2.56,0,0,0,120.49,153.62Z"/><path d="M133.87,154.43a3.38,3.38,0,1,0-3.38-3.37A3.37,3.37,0,0,0,133.87,154.43Z"/><path d="M147.24,155.28a4.23,4.23,0,1,0-4.22-4.22A4.22,4.22,0,0,0,147.24,155.28Z"/><path d="M160.62,156.25a5.2,5.2,0,1,0-5.2-5.19A5.2,5.2,0,0,0,160.62,156.25Z"/><path d="M174,157.29a6.23,6.23,0,1,0-6.23-6.23A6.23,6.23,0,0,0,174,157.29Z"/><path d="M187.36,158a6.9,6.9,0,1,0-6.89-6.9A6.9,6.9,0,0,0,187.36,158Z"/><path d="M200.74,158a6.9,6.9,0,1,0-6.9-6.9A6.9,6.9,0,0,0,200.74,158Z"/><path d="M214.11,158a6.9,6.9,0,1,0-6.9-6.9A6.9,6.9,0,0,0,214.11,158Z"/><path d="M227.48,158a6.9,6.9,0,1,0-6.89-6.9A6.89,6.89,0,0,0,227.48,158Z"/><path d="M240.86,158a6.9,6.9,0,1,0-6.9-6.9A6.9,6.9,0,0,0,240.86,158Z"/><path d="M254.23,158a6.9,6.9,0,1,0-6.89-6.9A6.9,6.9,0,0,0,254.23,158Z"/><path d="M267.61,158a6.9,6.9,0,1,0-6.9-6.9A6.9,6.9,0,0,0,267.61,158Z"/><path d="M281,158a6.9,6.9,0,1,0-6.9-6.9A6.9,6.9,0,0,0,281,158Z"/><path d="M294.35,157.77a6.72,6.72,0,1,0-6.71-6.71A6.72,6.72,0,0,0,294.35,157.77Z"/><path d="M307.73,156.69a5.64,5.64,0,1,0-5.64-5.63A5.64,5.64,0,0,0,307.73,156.69Z"/><path d="M321.1,155.69a4.64,4.64,0,1,0-4.63-4.63A4.63,4.63,0,0,0,321.1,155.69Z"/><path d="M334.48,154.77a3.71,3.71,0,1,0-3.71-3.71A3.71,3.71,0,0,0,334.48,154.77Z"/><circle cx="347.85" cy="151.06" r="2.89"/><path d="M361.22,153.21a2.15,2.15,0,1,0-2.15-2.15A2.15,2.15,0,0,0,361.22,153.21Z"/><path d="M374.6,152.54a1.49,1.49,0,0,0,0-3,1.49,1.49,0,1,0,0,3Z"/><path d="M388,152a1,1,0,1,0-1-1A1,1,0,0,0,388,152Z"/><path d="M401.34,151.58a.52.52,0,0,0,.52-.52.52.52,0,1,0-.52.52Z"/><path d="M414.72,151.24a.18.18,0,0,0,.18-.18.18.18,0,0,0-.18-.19.19.19,0,1,0,0,.37Z"/><path d="M60.31,164.47a0,0,0,0,0,0-.08s0,0,0,0S60.29,164.47,60.31,164.47Z"/><path d="M73.69,164.69a.26.26,0,0,0,0-.52.26.26,0,0,0,0,.52Z"/><path d="M87.06,165.06a.63.63,0,1,0-.63-.63A.63.63,0,0,0,87.06,165.06Z"/><path d="M100.44,165.51a1.08,1.08,0,1,0-1.08-1.08A1.08,1.08,0,0,0,100.44,165.51Z"/><path d="M113.81,166.1a1.67,1.67,0,1,0-1.67-1.67A1.67,1.67,0,0,0,113.81,166.1Z"/><path d="M127.18,166.73a2.3,2.3,0,1,0-2.3-2.3A2.3,2.3,0,0,0,127.18,166.73Z"/><path d="M140.55,167.47a3,3,0,1,0-3-3A3,3,0,0,0,140.55,167.47Z"/><path d="M153.93,168.29a3.86,3.86,0,1,0-3.86-3.86A3.86,3.86,0,0,0,153.93,168.29Z"/><path d="M167.3,169.18a4.75,4.75,0,1,0-4.74-4.75A4.75,4.75,0,0,0,167.3,169.18Z"/><circle cx="180.68" cy="164.43" r="5.71"/><path d="M194.05,171.14a6.71,6.71,0,1,0-6.71-6.71A6.7,6.7,0,0,0,194.05,171.14Z"/><path d="M207.42,171.33a6.9,6.9,0,1,0-6.89-6.9A6.9,6.9,0,0,0,207.42,171.33Z"/><path d="M220.8,171.33a6.9,6.9,0,1,0-6.9-6.9A6.9,6.9,0,0,0,220.8,171.33Z"/><path d="M234.17,171.33a6.9,6.9,0,1,0-6.9-6.9A6.9,6.9,0,0,0,234.17,171.33Z"/><path d="M247.55,171.33a6.9,6.9,0,1,0-6.9-6.9A6.89,6.89,0,0,0,247.55,171.33Z"/><path d="M260.92,171.33a6.9,6.9,0,1,0-6.9-6.9A6.9,6.9,0,0,0,260.92,171.33Z"/><path d="M274.29,171.33a6.9,6.9,0,1,0-6.89-6.9A6.9,6.9,0,0,0,274.29,171.33Z"/><path d="M287.67,171.33a6.9,6.9,0,1,0-6.9-6.9A6.9,6.9,0,0,0,287.67,171.33Z"/><path d="M301,170.81a6.38,6.38,0,1,0-6.38-6.38A6.38,6.38,0,0,0,301,170.81Z"/><path d="M314.41,169.88a5.45,5.45,0,1,0-5.45-5.45A5.45,5.45,0,0,0,314.41,169.88Z"/><path d="M327.79,168.92a4.49,4.49,0,1,0-4.49-4.49A4.49,4.49,0,0,0,327.79,168.92Z"/><path d="M341.16,168.06a3.63,3.63,0,1,0-3.63-3.63A3.63,3.63,0,0,0,341.16,168.06Z"/><path d="M354.54,167.25a2.82,2.82,0,1,0-2.82-2.82A2.81,2.81,0,0,0,354.54,167.25Z"/><path d="M367.91,166.54a2.11,2.11,0,1,0-2.11-2.11A2.1,2.1,0,0,0,367.91,166.54Z"/><path d="M381.28,165.91a1.48,1.48,0,1,0-1.48-1.48A1.49,1.49,0,0,0,381.28,165.91Z"/><path d="M394.66,165.36a.93.93,0,1,0-.93-.93A.93.93,0,0,0,394.66,165.36Z"/><path d="M408,164.91a.48.48,0,1,0-.48-.48A.47.47,0,0,0,408,164.91Z"/><path d="M421.4,164.62a.19.19,0,0,0,.19-.19.18.18,0,0,0-.19-.18.18.18,0,0,0-.18.18A.19.19,0,0,0,421.4,164.62Z"/><path d="M67,178a.15.15,0,0,0,.15-.15.15.15,0,0,0-.3,0A.15.15,0,0,0,67,178Z"/><path d="M80.37,178.25a.45.45,0,1,0-.44-.45A.45.45,0,0,0,80.37,178.25Z"/><path d="M93.75,178.66a.86.86,0,1,0-.85-.86A.85.85,0,0,0,93.75,178.66Z"/><path d="M107.12,179.18a1.38,1.38,0,1,0-1.37-1.38A1.37,1.37,0,0,0,107.12,179.18Z"/><path d="M120.49,179.77a2,2,0,1,0-2-2A2,2,0,0,0,120.49,179.77Z"/><circle cx="133.87" cy="177.8" r="2.63"/><path d="M147.24,181.18a3.38,3.38,0,1,0-3.37-3.38A3.38,3.38,0,0,0,147.24,181.18Z"/><path d="M160.62,182a4.16,4.16,0,1,0-4.16-4.16A4.15,4.15,0,0,0,160.62,182Z"/><circle cx="173.99" cy="177.8" r="4.97"/><path d="M187.36,183.59a5.79,5.79,0,1,0-5.78-5.79A5.79,5.79,0,0,0,187.36,183.59Z"/><circle cx="200.74" cy="177.8" r="6.56"/><path d="M214.11,184.7a6.9,6.9,0,1,0-6.9-6.9A6.9,6.9,0,0,0,214.11,184.7Z"/><path d="M227.48,184.7a6.9,6.9,0,1,0-6.89-6.9A6.89,6.89,0,0,0,227.48,184.7Z"/><path d="M240.86,184.7a6.9,6.9,0,1,0-6.9-6.9A6.9,6.9,0,0,0,240.86,184.7Z"/><path d="M254.23,184.7a6.9,6.9,0,1,0-6.89-6.9A6.9,6.9,0,0,0,254.23,184.7Z"/><path d="M267.61,184.7a6.9,6.9,0,1,0-6.9-6.9A6.9,6.9,0,0,0,267.61,184.7Z"/><path d="M281,184.37a6.57,6.57,0,1,0-6.56-6.57A6.56,6.56,0,0,0,281,184.37Z"/><path d="M294.35,183.55a5.75,5.75,0,1,0-5.74-5.75A5.74,5.74,0,0,0,294.35,183.55Z"/><path d="M307.73,182.74a4.94,4.94,0,1,0-4.93-4.94A4.94,4.94,0,0,0,307.73,182.74Z"/><circle cx="321.1" cy="177.8" r="4.12"/><path d="M334.48,181.14a3.34,3.34,0,1,0-3.34-3.34A3.33,3.33,0,0,0,334.48,181.14Z"/><path d="M347.85,180.4a2.6,2.6,0,1,0-2.6-2.6A2.59,2.59,0,0,0,347.85,180.4Z"/><path d="M361.22,179.73a1.93,1.93,0,1,0-1.93-1.93A1.92,1.92,0,0,0,361.22,179.73Z"/><path d="M374.6,179.18a1.38,1.38,0,1,0-1.38-1.38A1.38,1.38,0,0,0,374.6,179.18Z"/><path d="M388,178.66a.86.86,0,1,0-.85-.86A.85.85,0,0,0,388,178.66Z"/><path d="M401.34,178.25a.45.45,0,1,0-.44-.45A.45.45,0,0,0,401.34,178.25Z"/><path d="M414.72,178a.15.15,0,0,0,.15-.15.15.15,0,0,0-.3,0A.15.15,0,0,0,414.72,178Z"/><path d="M73.69,191.25a.07.07,0,0,0,.07-.07.08.08,0,0,0-.07-.08.09.09,0,0,0-.08.08A.08.08,0,0,0,73.69,191.25Z"/><path d="M87.06,191.44a.26.26,0,0,0,.26-.26.26.26,0,0,0-.52,0A.26.26,0,0,0,87.06,191.44Z"/><path d="M100.44,191.77a.59.59,0,0,0,.59-.59.6.6,0,1,0-1.19,0A.59.59,0,0,0,100.44,191.77Z"/><circle cx="113.81" cy="191.18" r="1.04"/><path d="M127.18,192.74a1.56,1.56,0,1,0-1.56-1.56A1.56,1.56,0,0,0,127.18,192.74Z"/><path d="M140.55,193.29a2.12,2.12,0,1,0-2.11-2.11A2.11,2.11,0,0,0,140.55,193.29Z"/><path d="M153.93,193.92a2.75,2.75,0,1,0-2.75-2.74A2.75,2.75,0,0,0,153.93,193.92Z"/><path d="M167.3,194.59a3.41,3.41,0,1,0-3.41-3.41A3.42,3.42,0,0,0,167.3,194.59Z"/><circle cx="180.68" cy="191.18" r="4.12"/><path d="M194.05,196a4.79,4.79,0,1,0-4.78-4.78A4.79,4.79,0,0,0,194.05,196Z"/><path d="M207.42,196.59a5.42,5.42,0,1,0-5.41-5.41A5.41,5.41,0,0,0,207.42,196.59Z"/><path d="M220.8,197.11a5.94,5.94,0,1,0-5.93-5.93A5.93,5.93,0,0,0,220.8,197.11Z"/><path d="M234.17,197.45a6.27,6.27,0,1,0-6.27-6.27A6.27,6.27,0,0,0,234.17,197.45Z"/><path d="M247.55,197.59a6.42,6.42,0,1,0-6.42-6.41A6.41,6.41,0,0,0,247.55,197.59Z"/><path d="M260.92,197.52a6.34,6.34,0,1,0-6.34-6.34A6.34,6.34,0,0,0,260.92,197.52Z"/><path d="M274.29,197.19a6,6,0,1,0-6-6A6,6,0,0,0,274.29,197.19Z"/><circle cx="287.67" cy="191.18" r="5.53"/><path d="M301,196.11a4.93,4.93,0,1,0-4.93-4.93A4.93,4.93,0,0,0,301,196.11Z"/><path d="M314.41,195.44a4.27,4.27,0,1,0-4.26-4.26A4.27,4.27,0,0,0,314.41,195.44Z"/><path d="M327.79,194.78a3.6,3.6,0,1,0-3.6-3.6A3.6,3.6,0,0,0,327.79,194.78Z"/><path d="M341.16,194.11a2.93,2.93,0,1,0-2.93-2.93A2.93,2.93,0,0,0,341.16,194.11Z"/><circle cx="354.54" cy="191.18" r="2.3"/><path d="M367.91,192.85a1.67,1.67,0,1,0-1.67-1.67A1.67,1.67,0,0,0,367.91,192.85Z"/><path d="M381.28,192.33a1.15,1.15,0,1,0-1.15-1.15A1.15,1.15,0,0,0,381.28,192.33Z"/><path d="M394.66,191.88a.7.7,0,0,0,.7-.7.7.7,0,0,0-.7-.71.71.71,0,0,0-.71.71A.7.7,0,0,0,394.66,191.88Z"/><path d="M408,191.51a.34.34,0,1,0-.33-.33A.34.34,0,0,0,408,191.51Z"/><path d="M421.4,191.29a.11.11,0,1,0,0-.22.11.11,0,1,0,0,.22Z"/><path d="M80.37,204.66a.11.11,0,1,0,0-.22.11.11,0,0,0,0,.22Z"/><path d="M93.75,204.92a.37.37,0,0,0,.37-.37.38.38,0,0,0-.37-.37.37.37,0,0,0-.37.37A.36.36,0,0,0,93.75,204.92Z"/><path d="M107.12,205.26a.71.71,0,0,0,.71-.71.7.7,0,0,0-.71-.7.7.7,0,0,0-.7.7A.7.7,0,0,0,107.12,205.26Z"/><path d="M120.49,205.66a1.11,1.11,0,1,0-1.11-1.11A1.11,1.11,0,0,0,120.49,205.66Z"/><path d="M133.87,206.15a1.6,1.6,0,1,0-1.6-1.6A1.6,1.6,0,0,0,133.87,206.15Z"/><path d="M147.24,206.67a2.12,2.12,0,1,0-2.11-2.12A2.12,2.12,0,0,0,147.24,206.67Z"/><path d="M160.62,207.22a2.67,2.67,0,1,0-2.67-2.67A2.67,2.67,0,0,0,160.62,207.22Z"/><path d="M174,207.78a3.23,3.23,0,1,0-3.23-3.23A3.23,3.23,0,0,0,174,207.78Z"/><path d="M187.36,208.34a3.79,3.79,0,1,0-3.78-3.79A3.79,3.79,0,0,0,187.36,208.34Z"/><path d="M200.74,208.82a4.27,4.27,0,1,0-4.27-4.27A4.27,4.27,0,0,0,200.74,208.82Z"/><path d="M214.11,209.23a4.68,4.68,0,1,0-4.67-4.68A4.68,4.68,0,0,0,214.11,209.23Z"/><path d="M227.48,209.48a4.93,4.93,0,1,0-4.93-4.93A4.93,4.93,0,0,0,227.48,209.48Z"/><path d="M240.86,209.63a5.08,5.08,0,1,0-5.08-5.08A5.07,5.07,0,0,0,240.86,209.63Z"/><path d="M254.23,209.6a5,5,0,1,0-5-5A5,5,0,0,0,254.23,209.6Z"/><path d="M267.61,209.37a4.82,4.82,0,1,0-4.82-4.82A4.82,4.82,0,0,0,267.61,209.37Z"/><path d="M281,209a4.49,4.49,0,1,0-4.49-4.49A4.49,4.49,0,0,0,281,209Z"/><path d="M294.35,208.59a4,4,0,1,0-4-4A4,4,0,0,0,294.35,208.59Z"/><path d="M307.73,208.07a3.52,3.52,0,1,0-3.52-3.52A3.51,3.51,0,0,0,307.73,208.07Z"/><path d="M321.1,207.52a3,3,0,1,0-3-3A3,3,0,0,0,321.1,207.52Z"/><path d="M334.48,207a2.41,2.41,0,1,0-2.42-2.41A2.41,2.41,0,0,0,334.48,207Z"/><path d="M347.85,206.41a1.86,1.86,0,1,0-1.85-1.86A1.85,1.85,0,0,0,347.85,206.41Z"/><path d="M361.22,205.92a1.37,1.37,0,1,0-1.37-1.37A1.37,1.37,0,0,0,361.22,205.92Z"/><path d="M374.6,205.44a.89.89,0,1,0-.89-.89A.89.89,0,0,0,374.6,205.44Z"/><path d="M388,205.07a.52.52,0,0,0,.52-.52.52.52,0,1,0-1,0A.52.52,0,0,0,388,205.07Z"/><path d="M401.34,204.77a.22.22,0,1,0,0-.44.22.22,0,1,0,0,.44Z"/><path d="M414.72,204.59a0,0,0,0,0,0-.08,0,0,0,0,0,0,.08A0,0,0,0,0,414.72,204.59Z"/><path d="M100.44,218.07a.14.14,0,0,0,.14-.14.14.14,0,0,0-.14-.15.14.14,0,0,0-.15.15A.14.14,0,0,0,100.44,218.07Z"/><circle cx="113.81" cy="217.93" r="0.37"/><path d="M127.18,218.63a.71.71,0,1,0-.7-.7A.7.7,0,0,0,127.18,218.63Z"/><path d="M140.55,219a1.08,1.08,0,1,0-1.07-1.07A1.07,1.07,0,0,0,140.55,219Z"/><path d="M153.93,219.45a1.53,1.53,0,1,0-1.52-1.52A1.53,1.53,0,0,0,153.93,219.45Z"/><path d="M167.3,219.89a2,2,0,1,0-2-2A2,2,0,0,0,167.3,219.89Z"/><path d="M180.68,220.34a2.42,2.42,0,1,0-2.41-2.41A2.41,2.41,0,0,0,180.68,220.34Z"/><path d="M194.05,220.74a2.82,2.82,0,1,0-2.82-2.81A2.81,2.81,0,0,0,194.05,220.74Z"/><path d="M207.42,221.12a3.19,3.19,0,1,0-3.18-3.19A3.19,3.19,0,0,0,207.42,221.12Z"/><path d="M220.8,221.45a3.53,3.53,0,1,0-3.52-3.52A3.52,3.52,0,0,0,220.8,221.45Z"/><path d="M234.17,221.67a3.75,3.75,0,1,0-3.74-3.74A3.75,3.75,0,0,0,234.17,221.67Z"/><circle cx="247.55" cy="217.93" r="3.86"/><circle cx="260.92" cy="217.93" r="3.86"/><path d="M274.29,221.63a3.71,3.71,0,1,0-3.71-3.7A3.71,3.71,0,0,0,274.29,221.63Z"/><path d="M287.67,221.37a3.45,3.45,0,1,0-3.45-3.44A3.45,3.45,0,0,0,287.67,221.37Z"/><path d="M301,221a3.12,3.12,0,1,0-3.11-3.11A3.12,3.12,0,0,0,301,221Z"/><path d="M314.41,220.67a2.75,2.75,0,1,0-2.74-2.74A2.75,2.75,0,0,0,314.41,220.67Z"/><path d="M327.79,220.23a2.3,2.3,0,1,0-2.3-2.3A2.3,2.3,0,0,0,327.79,220.23Z"/><path d="M341.16,219.78a1.86,1.86,0,1,0-1.85-1.85A1.85,1.85,0,0,0,341.16,219.78Z"/><circle cx="354.54" cy="217.93" r="1.41"/><path d="M367.91,218.93a1,1,0,1,0-1-1A1,1,0,0,0,367.91,218.93Z"/><path d="M381.28,218.56a.64.64,0,1,0-.63-.63A.63.63,0,0,0,381.28,218.56Z"/><path d="M394.66,218.26a.34.34,0,0,0,0-.67.34.34,0,1,0,0,.67Z"/><path d="M408,218a.11.11,0,0,0,.11-.11.11.11,0,1,0-.22,0A.11.11,0,0,0,408,218Z"/><path d="M107.12,231.45a.15.15,0,1,0-.15-.15A.15.15,0,0,0,107.12,231.45Z"/><path d="M120.49,231.67a.38.38,0,0,0,.38-.37.38.38,0,0,0-.75,0A.38.38,0,0,0,120.49,231.67Z"/><path d="M133.87,231.93a.63.63,0,1,0-.63-.63A.63.63,0,0,0,133.87,231.93Z"/><path d="M147.24,232.23a.93.93,0,1,0-.93-.93A.93.93,0,0,0,147.24,232.23Z"/><path d="M160.62,232.6a1.3,1.3,0,1,0-1.3-1.3A1.3,1.3,0,0,0,160.62,232.6Z"/><path d="M174,232.93a1.63,1.63,0,1,0-1.63-1.63A1.63,1.63,0,0,0,174,232.93Z"/><path d="M187.36,233.27a2,2,0,1,0-2-2A2,2,0,0,0,187.36,233.27Z"/><path d="M200.74,233.56a2.26,2.26,0,1,0-2.26-2.26A2.26,2.26,0,0,0,200.74,233.56Z"/><path d="M214.11,233.82a2.52,2.52,0,1,0-2.52-2.52A2.52,2.52,0,0,0,214.11,233.82Z"/><path d="M227.48,234a2.67,2.67,0,1,0-2.66-2.67A2.68,2.68,0,0,0,227.48,234Z"/><path d="M240.86,234.08a2.78,2.78,0,1,0-2.78-2.78A2.78,2.78,0,0,0,240.86,234.08Z"/><path d="M254.23,234.08a2.78,2.78,0,1,0-2.78-2.78A2.78,2.78,0,0,0,254.23,234.08Z"/><path d="M267.61,234a2.71,2.71,0,1,0-2.71-2.71A2.71,2.71,0,0,0,267.61,234Z"/><path d="M281,233.82a2.52,2.52,0,1,0-2.52-2.52A2.52,2.52,0,0,0,281,233.82Z"/><path d="M294.35,233.6a2.3,2.3,0,1,0-2.3-2.3A2.3,2.3,0,0,0,294.35,233.6Z"/><path d="M307.73,233.27a2,2,0,1,0-2-2A2,2,0,0,0,307.73,233.27Z"/><path d="M321.1,233a1.67,1.67,0,1,0-1.67-1.67A1.67,1.67,0,0,0,321.1,233Z"/><path d="M334.48,232.6a1.3,1.3,0,1,0-1.3-1.3A1.3,1.3,0,0,0,334.48,232.6Z"/><path d="M347.85,232.26a1,1,0,0,0,0-1.93,1,1,0,1,0,0,1.93Z"/><path d="M361.22,231.93a.63.63,0,1,0-.63-.63A.63.63,0,0,0,361.22,231.93Z"/><path d="M374.6,231.67a.38.38,0,0,0,.37-.37.38.38,0,0,0-.75,0A.38.38,0,0,0,374.6,231.67Z"/><path d="M388,231.45a.15.15,0,1,0-.15-.15A.15.15,0,0,0,388,231.45Z"/><path d="M127.18,244.78a.11.11,0,1,0-.11-.11A.11.11,0,0,0,127.18,244.78Z"/><path d="M140.55,244.93a.26.26,0,0,0,.27-.26.27.27,0,0,0-.27-.26.26.26,0,0,0-.25.26A.25.25,0,0,0,140.55,244.93Z"/><path d="M153.93,245.16a.49.49,0,1,0-.48-.49A.48.48,0,0,0,153.93,245.16Z"/><path d="M167.3,245.38a.71.71,0,0,0,.71-.71.7.7,0,0,0-.71-.7.7.7,0,0,0-.7.7A.7.7,0,0,0,167.3,245.38Z"/><path d="M180.68,245.64a1,1,0,1,0-1-1A1,1,0,0,0,180.68,245.64Z"/><circle cx="194.05" cy="244.67" r="1.22"/><path d="M207.42,246.12a1.45,1.45,0,1,0,0-2.89,1.45,1.45,0,0,0,0,2.89Z"/><path d="M220.8,246.3a1.63,1.63,0,1,0-1.63-1.63A1.63,1.63,0,0,0,220.8,246.3Z"/><path d="M234.17,246.45a1.78,1.78,0,1,0-1.78-1.78A1.77,1.77,0,0,0,234.17,246.45Z"/><path d="M247.55,246.53a1.86,1.86,0,1,0-1.86-1.86A1.85,1.85,0,0,0,247.55,246.53Z"/><circle cx="260.92" cy="244.67" r="1.85"/><path d="M274.29,246.49a1.82,1.82,0,1,0-1.81-1.82A1.81,1.81,0,0,0,274.29,246.49Z"/><path d="M287.67,246.38a1.71,1.71,0,1,0-1.71-1.71A1.7,1.7,0,0,0,287.67,246.38Z"/><path d="M301,246.19a1.52,1.52,0,1,0-1.52-1.52A1.52,1.52,0,0,0,301,246.19Z"/><path d="M314.41,246a1.3,1.3,0,1,0-1.29-1.3A1.3,1.3,0,0,0,314.41,246Z"/><path d="M327.79,245.71a1,1,0,1,0-1-1A1,1,0,0,0,327.79,245.71Z"/><path d="M341.16,245.49a.82.82,0,0,0,.82-.82.82.82,0,0,0-.82-.81.81.81,0,0,0-.81.81A.82.82,0,0,0,341.16,245.49Z"/><path d="M354.54,245.23a.56.56,0,1,0-.56-.56A.56.56,0,0,0,354.54,245.23Z"/><path d="M367.91,245a.34.34,0,1,0-.33-.34A.34.34,0,0,0,367.91,245Z"/><path d="M381.28,244.82a.14.14,0,0,0,.15-.15.15.15,0,0,0-.15-.15.15.15,0,0,0-.15.15A.15.15,0,0,0,381.28,244.82Z"/><path d="M394.66,244.71a0,0,0,0,0,0,0s0,0,0,0,0,0,0,0A0,0,0,0,0,394.66,244.71Z"/><path d="M133.87,258.08s0,0,0,0a0,0,0,1,0-.08,0S133.85,258.08,133.87,258.08Z"/><path d="M147.24,258.19a.15.15,0,0,0,.15-.14.15.15,0,0,0-.3,0A.15.15,0,0,0,147.24,258.19Z"/><path d="M160.62,258.34a.3.3,0,0,0,0-.59.3.3,0,1,0,0,.59Z"/><path d="M174,258.49a.45.45,0,1,0-.44-.44A.45.45,0,0,0,174,258.49Z"/><path d="M187.36,258.68a.63.63,0,1,0-.63-.63A.63.63,0,0,0,187.36,258.68Z"/><path d="M200.74,258.83a.78.78,0,1,0-.78-.78A.78.78,0,0,0,200.74,258.83Z"/><path d="M214.11,259a.93.93,0,1,0-.93-.92A.93.93,0,0,0,214.11,259Z"/><path d="M227.48,259.08a1,1,0,1,0-1-1A1,1,0,0,0,227.48,259.08Z"/><path d="M240.86,259.12a1.08,1.08,0,1,0-1.08-1.07A1.07,1.07,0,0,0,240.86,259.12Z"/><path d="M254.23,259.16a1.12,1.12,0,1,0-1.11-1.11A1.12,1.12,0,0,0,254.23,259.16Z"/><path d="M267.61,259.12a1.08,1.08,0,1,0-1.08-1.07A1.07,1.07,0,0,0,267.61,259.12Z"/><path d="M281,259.05a1,1,0,1,0-1-1A1,1,0,0,0,281,259.05Z"/><path d="M294.35,258.94a.89.89,0,1,0-.89-.89A.89.89,0,0,0,294.35,258.94Z"/><path d="M307.73,258.75a.7.7,0,0,0,.7-.7.7.7,0,0,0-.7-.71.71.71,0,0,0-.71.71A.7.7,0,0,0,307.73,258.75Z"/><path d="M321.1,258.6a.56.56,0,1,0-.56-.55A.56.56,0,0,0,321.1,258.6Z"/><path d="M334.48,258.42a.38.38,0,0,0,.37-.37.37.37,0,0,0-.37-.37.36.36,0,0,0-.37.37A.37.37,0,0,0,334.48,258.42Z"/><path d="M347.85,258.27a.22.22,0,0,0,.22-.22.22.22,0,1,0-.44,0A.22.22,0,0,0,347.85,258.27Z"/><path d="M361.22,258.16a.11.11,0,1,0-.11-.11A.11.11,0,0,0,361.22,258.16Z"/><path d="M167.3,271.46a0,0,0,0,0,0-.08s0,0,0,0S167.28,271.46,167.3,271.46Z"/><path d="M180.68,271.53a.11.11,0,1,0-.11-.11A.11.11,0,0,0,180.68,271.53Z"/><path d="M194.05,271.61a.19.19,0,0,0,0-.38.19.19,0,0,0,0,.38Z"/><path d="M207.42,271.72a.3.3,0,1,0-.29-.3A.3.3,0,0,0,207.42,271.72Z"/><circle cx="220.8" cy="271.42" r="0.37"/><path d="M234.17,271.87a.45.45,0,1,0-.44-.45A.45.45,0,0,0,234.17,271.87Z"/><path d="M247.55,271.9a.48.48,0,0,0,.48-.48.49.49,0,1,0-.48.48Z"/><path d="M260.92,271.94a.52.52,0,1,0-.52-.52A.52.52,0,0,0,260.92,271.94Z"/><path d="M274.29,271.9a.47.47,0,0,0,.48-.48.48.48,0,0,0-.48-.48.49.49,0,0,0-.48.48A.48.48,0,0,0,274.29,271.9Z"/><path d="M287.67,271.87a.45.45,0,1,0-.45-.45A.45.45,0,0,0,287.67,271.87Z"/><circle cx="301.04" cy="271.42" r="0.37"/><path d="M314.41,271.72a.3.3,0,1,0-.29-.3A.3.3,0,0,0,314.41,271.72Z"/><path d="M327.79,271.61a.19.19,0,1,0-.19-.19A.2.2,0,0,0,327.79,271.61Z"/><path d="M341.16,271.53a.11.11,0,1,0-.11-.11A.11.11,0,0,0,341.16,271.53Z"/><path d="M354.54,271.46s0,0,0,0,0,0,0,0a0,0,0,1,0,0,.08Z"/><path d="M200.74,284.83s0,0,0,0a0,0,0,0,0,0,0s0,0,0,0A0,0,0,0,0,200.74,284.83Z"/><path d="M214.11,284.87a.07.07,0,0,0,.07-.08.07.07,0,0,0-.14,0A.07.07,0,0,0,214.11,284.87Z"/><path d="M227.48,284.91a.12.12,0,0,0,.12-.12.11.11,0,0,0-.12-.11.1.1,0,0,0-.1.11C227.38,284.86,227.42,284.91,227.48,284.91Z"/><path d="M240.86,284.91a.11.11,0,0,0,.11-.12.11.11,0,1,0-.22,0A.11.11,0,0,0,240.86,284.91Z"/><path d="M254.23,284.91a.11.11,0,0,0,.11-.12.11.11,0,1,0-.22,0A.11.11,0,0,0,254.23,284.91Z"/><path d="M267.61,284.91a.11.11,0,0,0,.11-.12.11.11,0,0,0-.11-.11.12.12,0,0,0-.12.11A.12.12,0,0,0,267.61,284.91Z"/><path d="M281,284.91a.11.11,0,0,0,.11-.12.11.11,0,0,0-.22,0A.11.11,0,0,0,281,284.91Z"/><path d="M294.35,284.87a.07.07,0,0,0,.08-.08.07.07,0,0,0-.08-.07.07.07,0,0,0-.07.07A.07.07,0,0,0,294.35,284.87Z"/><path d="M307.73,284.83a0,0,0,0,0,0,0s0,0,0,0,0,0,0,0A0,0,0,0,0,307.73,284.83Z"/><polygon points="492.92 295.09 11.47 320.68 16.75 254.07 496 228.47 492.92 295.09"/><polygon points="487.79 289.29 6.35 314.88 10.48 247.46 490.88 222.68 487.79 289.29" style="fill:#4e2f87"/><path d="M21.7,297.2l2.17-30.85a.62.62,0,0,1,.59-.57l5.24-.27a.71.71,0,0,1,.66.33l4.52,9.26c.08.14.17.13.27,0l5.91-9.81a.92.92,0,0,1,.71-.39l5.24-.27a.45.45,0,0,1,.51.51L45.35,296a.63.63,0,0,1-.59.58l-5.33.28a.46.46,0,0,1-.51-.52l1.4-19.8c0-.23-.17-.22-.27,0l-4.17,6.95a.93.93,0,0,1-.71.4l-1.55.08a.65.65,0,0,1-.66-.33L29.8,277c-.08-.18-.26-.12-.28.1l-1.4,19.8a.6.6,0,0,1-.58.58l-5.33.28A.47.47,0,0,1,21.7,297.2Z" style="fill:#fff"/><path d="M70.63,268.89l-12.21.63a.26.26,0,0,0-.24.24l-.5,7.12a.19.19,0,0,0,.21.22l7.61-.4a.47.47,0,0,1,.51.53l-.31,4.42a.61.61,0,0,1-.59.57l-7.61.4a.25.25,0,0,0-.24.24l-.52,7.34a.19.19,0,0,0,.21.22l12.21-.63a.45.45,0,0,1,.51.52l-.31,4.42a.62.62,0,0,1-.59.58l-18.31.95a.47.47,0,0,1-.51-.52l2.17-30.85a.62.62,0,0,1,.59-.57L71,263.37a.46.46,0,0,1,.51.52l-.31,4.43A.6.6,0,0,1,70.63,268.89Z" style="fill:#fff"/><path d="M73.24,294.53l2.17-30.84a.59.59,0,0,1,.59-.57l5.37-.28a.59.59,0,0,1,.61.38L89.44,281c.08.18.27.12.28-.1l1.22-18a.63.63,0,0,1,.59-.58l5.28-.27a.46.46,0,0,1,.51.52L95.15,293.4a.61.61,0,0,1-.58.58l-5.43.28a.6.6,0,0,1-.61-.38L81.08,276c-.08-.18-.26-.12-.28.1L79.61,294.2a.61.61,0,0,1-.58.58l-5.28.27A.45.45,0,0,1,73.24,294.53Z" style="fill:#fff"/><path d="M99.73,285.16l.09-1.23a.59.59,0,0,1,.58-.57l5.24-.27a.45.45,0,0,1,.51.51l-.07.92c-.14,2.1,1.43,3.65,4,3.52s3.75-1.65,3.88-3.43c.15-2.14-1.61-3-5.21-4.73-3.91-1.84-8.34-4-7.94-9.68.38-5.39,4.67-9,10.55-9.28,6.2-.32,10.17,3.2,9.78,8.72l-.06.92a.61.61,0,0,1-.59.57l-5.24.27a.45.45,0,0,1-.51-.51l.06-.82c.15-2.1-1.28-3.76-3.92-3.62a3.57,3.57,0,0,0-3.74,3.37c-.15,2.15,1.33,3,5.29,4.87,4.24,2.28,8.3,4,7.92,9.32-.38,5.52-4.73,9.24-10.93,9.56S99.35,290.5,99.73,285.16Z" style="fill:#fff"/><path d="M123.73,282.83l.89-12.68c.43-6,4.85-10.16,11.14-10.49s10.16,3.3,9.75,9.18l0,.23a.65.65,0,0,1-.59.62l-5.34.51c-.37,0-.54-.11-.52-.48l.05-.59c.17-2.51-1.31-4.07-3.72-3.95a4.46,4.46,0,0,0-4.31,4.37l-.94,13.36c-.17,2.47,1.31,4,3.72,3.9a4.42,4.42,0,0,0,4.3-4.31l.05-.6c0-.36.21-.51.58-.53l5.31,0c.32,0,.54.06.52.29l0,.36c-.42,5.93-4.84,10-11.12,10.35S123.3,288.9,123.73,282.83Z" style="fill:#fff"/><path d="M165,258.52l5.34-.28a.45.45,0,0,1,.5.52l-2.17,30.84a.6.6,0,0,1-.58.58l-5.33.28a.46.46,0,0,1-.51-.52l.88-12.5a.19.19,0,0,0-.21-.22l-7.29.38a.24.24,0,0,0-.25.23l-.88,12.5a.6.6,0,0,1-.58.58l-5.33.28a.46.46,0,0,1-.51-.52l2.17-30.85a.62.62,0,0,1,.59-.57l5.33-.27a.44.44,0,0,1,.5.51l-.86,12.32a.19.19,0,0,0,.21.22l7.29-.38a.24.24,0,0,0,.24-.24l.87-12.32A.61.61,0,0,1,165,258.52Z" style="fill:#fff"/><path d="M193.94,262.52l-12.21.63a.25.25,0,0,0-.24.24l-.5,7.12a.19.19,0,0,0,.21.22l7.6-.4a.46.46,0,0,1,.51.53l-.31,4.42a.59.59,0,0,1-.58.57l-7.61.4a.25.25,0,0,0-.25.24l-.51,7.34a.19.19,0,0,0,.21.22l12.21-.63a.46.46,0,0,1,.51.52l-.31,4.42a.63.63,0,0,1-.59.58l-18.32.95a.46.46,0,0,1-.5-.52l2.17-30.85A.61.61,0,0,1,176,258l18.32-.95a.46.46,0,0,1,.51.52l-.31,4.43A.6.6,0,0,1,193.94,262.52Z" style="fill:#fff"/><path d="M196.54,288.16l2.18-30.84a.59.59,0,0,1,.58-.57l5.37-.28a.59.59,0,0,1,.61.38l7.47,17.75c.07.18.26.12.28-.1l1.22-18a.6.6,0,0,1,.58-.57l5.29-.28a.46.46,0,0,1,.51.52L218.45,287a.61.61,0,0,1-.58.58l-5.42.28a.59.59,0,0,1-.61-.38l-7.46-17.89c-.07-.18-.26-.12-.28.11l-1.18,18.1a.62.62,0,0,1-.59.58l-5.28.27A.46.46,0,0,1,196.54,288.16Z" style="fill:#fff"/><path d="M253,259.47l-12.16.63a.24.24,0,0,0-.24.24l-.5,7.12a.19.19,0,0,0,.21.22l7.56-.4a.47.47,0,0,1,.51.53l-.31,4.42a.6.6,0,0,1-.59.57l-7.56.4a.24.24,0,0,0-.24.24L238.78,286a.61.61,0,0,1-.58.58l-5.33.27a.46.46,0,0,1-.51-.52l2.17-30.84a.6.6,0,0,1,.59-.57l18.26-1a.46.46,0,0,1,.51.52l-.31,4.43A.6.6,0,0,1,253,259.47Z" style="fill:#fff"/><path d="M255.11,275.91l1.52-21.58a.62.62,0,0,1,.58-.58l5.33-.27a.46.46,0,0,1,.51.52l-1.54,21.9c-.18,2.6,1.29,4.25,3.7,4.13a4.56,4.56,0,0,0,4.32-4.54l1.54-21.91a.61.61,0,0,1,.59-.57l5.33-.27a.44.44,0,0,1,.5.51L276,274.83c-.43,6.12-4.86,10.39-11.14,10.72S254.68,282,255.11,275.91Zm5.19-28.59a3.55,3.55,0,0,1,3.46-3.4,2.61,2.61,0,0,1,2.87,3.08,3.47,3.47,0,0,1-3.32,3.4A2.69,2.69,0,0,1,260.3,247.32Zm8.2-.42a3.56,3.56,0,0,1,3.42-3.41,2.66,2.66,0,0,1,3,3.08,3.53,3.53,0,0,1-3.42,3.4A2.67,2.67,0,0,1,268.5,246.9Z" style="fill:#fff"/><path d="M294.28,283.21l-3.72-12.36c0-.09-.08-.18-.21-.17l-2.87.15a.25.25,0,0,0-.25.24l-.87,12.45a.63.63,0,0,1-.59.58l-5.33.28a.47.47,0,0,1-.51-.53L282.11,253a.61.61,0,0,1,.58-.58l11.12-.57c5.47-.28,8.88,3.45,8.47,9.15a9.92,9.92,0,0,1-5.5,8.56.28.28,0,0,0-.11.32l4.27,12.83c.11.4-.09.64-.5.66l-5.56.29A.51.51,0,0,1,294.28,283.21Zm-6.12-25.33-.55,7.76a.19.19,0,0,0,.22.21l4-.2a4.3,4.3,0,0,0,4.07-4.26c.18-2.55-1.26-4.07-3.49-3.95l-4,.2A.25.25,0,0,0,288.16,257.88Z" style="fill:#fff"/><path d="M313.88,273.1l.9-12.82c.42-6,4.84-10.11,11.13-10.44s10.15,3.43,9.76,9l-.07,1a.6.6,0,0,1-.58.57l-5.33.28a.46.46,0,0,1-.51-.52l.07-1a3.33,3.33,0,0,0-3.73-3.81,4.58,4.58,0,0,0-4.36,4.5l-.92,13.05a3.51,3.51,0,0,0,3.89,4.07,4.23,4.23,0,0,0,4.2-4.12l.2-2.83a.2.2,0,0,0-.22-.22l-3.55.18a.46.46,0,0,1-.51-.52l.29-4.15a.62.62,0,0,1,.59-.57l9.61-.5a.45.45,0,0,1,.51.52l-.51,7.26c-.43,6.15-4.89,10.15-11.13,10.48S313.45,279.08,313.88,273.1Z" style="fill:#fff"/><path d="M354,280.12l-.73-4.42c0-.13-.08-.18-.21-.17l-8.52.44c-.14,0-.19.06-.24.2l-1.37,4.52a.68.68,0,0,1-.67.49l-5.51.29c-.36,0-.53-.16-.41-.57l10.37-31.31a.68.68,0,0,1,.67-.49l6.61-.34a.5.5,0,0,1,.6.42l6.07,30.46a.47.47,0,0,1-.49.62l-5.61.29A.49.49,0,0,1,354,280.12Zm-7.84-9.19,6-.3a.24.24,0,0,0,.24-.29l-2.14-12.8c0-.23-.21-.17-.27,0L346,270.67A.19.19,0,0,0,346.17,270.93Z" style="fill:#fff"/><path d="M364.38,270.27l1.52-21.59a.62.62,0,0,1,.59-.57l5.32-.27a.45.45,0,0,1,.51.51l-1.54,21.91c-.18,2.59,1.29,4.25,3.71,4.12a4.55,4.55,0,0,0,4.31-4.54l1.54-21.9a.63.63,0,0,1,.59-.58l5.33-.27a.45.45,0,0,1,.5.52l-1.52,21.58c-.42,6.11-4.85,10.38-11.14,10.71S364,276.38,364.38,270.27Z" style="fill:#fff"/><path d="M411.74,246.32l-.32,4.47a.59.59,0,0,1-.58.57l-6.93.36a.24.24,0,0,0-.24.24l-1.81,25.6a.6.6,0,0,1-.58.57l-5.33.28a.46.46,0,0,1-.51-.52l1.8-25.6a.18.18,0,0,0-.21-.21l-6.69.34a.45.45,0,0,1-.51-.52l.31-4.47a.61.61,0,0,1,.59-.57l20.5-1.06A.46.46,0,0,1,411.74,246.32Z" style="fill:#fff"/><path d="M413.17,277l2.17-30.84a.61.61,0,0,1,.59-.57l5.33-.28a.45.45,0,0,1,.5.52l-2.17,30.84a.62.62,0,0,1-.58.58l-5.33.27A.46.46,0,0,1,413.17,277Z" style="fill:#fff"/><path d="M424.38,276.39l2.17-30.84a.6.6,0,0,1,.59-.57l5.37-.28a.59.59,0,0,1,.61.38l7.46,17.75c.08.18.27.12.28-.1l1.23-18a.59.59,0,0,1,.58-.57l5.29-.28a.46.46,0,0,1,.5.52l-2.17,30.84a.62.62,0,0,1-.58.58l-5.43.28a.6.6,0,0,1-.61-.38l-7.45-17.89c-.08-.18-.26-.12-.28.11l-1.19,18.1a.6.6,0,0,1-.58.58l-5.29.27A.46.46,0,0,1,424.38,276.39Z" style="fill:#fff"/><path d="M451.17,266l.9-12.82c.42-6,4.85-10.12,11.13-10.44s10.16,3.43,9.77,8.95l-.07,1a.63.63,0,0,1-.59.58l-5.33.28a.46.46,0,0,1-.51-.52l.07-1a3.33,3.33,0,0,0-3.73-3.81,4.58,4.58,0,0,0-4.35,4.5l-.92,13a3.51,3.51,0,0,0,3.89,4.07,4.23,4.23,0,0,0,4.19-4.13l.2-2.83a.18.18,0,0,0-.21-.21l-3.55.18a.46.46,0,0,1-.51-.52l.29-4.15a.6.6,0,0,1,.59-.57l9.61-.5a.46.46,0,0,1,.51.52l-.52,7.25c-.43,6.16-4.89,10.16-11.13,10.48S450.75,272,451.17,266Z" style="fill:#fff"/><path d="M310,205.85,97.58,211.51,46.36,48.37,418.3,15.14,422.49,201l-56.21,2.83-4.06,45.66ZM399.71,36,91,59.53,142,187l174.9-.2,29.63,24.74,2.3-25.89,54.28-2.74Z"/><polygon points="404.17 21.62 407.95 187.99 352.7 190.77 349.52 226.54 308.59 192.36 99.42 198.01 58.58 52.76 404.17 21.62" style="fill:#fff"/><path d="M389.44,55a8.24,8.24,0,0,1,1,5.23q-.81,9.25-1.51,18.72t-1.23,18.65q-.52,9.18-.76,17.62t-.22,15.68q0,2.53-1,3.39c-.7.58-2,.86-3.83.84a48,48,0,0,1-6.2.06,37.49,37.49,0,0,1-5.69-.81,8,8,0,0,1-4.22-2.14q-1.26-1.42-1.52-4.86-.75-6.81-1.34-16.13T362,92q-.32-9.93-.47-19.66t0-17.49c0-2.49.54-4.15,1.58-5s2.88-1.13,5.51-.9a58.21,58.21,0,0,1,8.09.74,39.81,39.81,0,0,1,7.92,2Q388.17,53.09,389.44,55ZM364.88,148.4a9.85,9.85,0,0,1,2.24-4.3A11.51,11.51,0,0,1,371.6,141a16.82,16.82,0,0,1,6.68-1,13.74,13.74,0,0,1,5.58,1.07,10.46,10.46,0,0,1,3.68,2.64,8.87,8.87,0,0,1,1.88,3.39,9.31,9.31,0,0,1,.39,3.28,10.39,10.39,0,0,1-.69,2.76,13,13,0,0,1-1.73,3.21,13.9,13.9,0,0,1-2.89,2.9,11.6,11.6,0,0,1-4.27,2,14.15,14.15,0,0,1-9.79-.55q-4.49-2-5.62-7.52A11.32,11.32,0,0,1,364.88,148.4Z" style="fill:#ea620f"/><path d="M277.73,78.43c-.76-3-.7-3.94-1.77-6.05a55.21,55.21,0,0,0-3-5.6,24.07,24.07,0,0,0-3.42-3.11,9.52,9.52,0,0,0-3.38-1.51A24.66,24.66,0,0,0,260.19,61a33.56,33.56,0,0,0-7.32.35q-7.81,1.17-12.1,3.82a26.34,26.34,0,0,0-6.86,5.87,26.44,26.44,0,0,0-4.5,11.3,78.25,78.25,0,0,0-1,16.79c0,.24,0,.5,0,.75-2.38.26-1.31.39-3.47.71-3.12.46-3.38.53-5.66.94a5.45,5.45,0,0,0-4.46,6.74c.37,2.08.38,3.43.56,5.19.2,1.93.65,5.29,2.26,6.69,1.12,1,7.83.53,9.27.14,1.09-.28,2.28-.47,3.4-.72.07.48.12.93.19,1.42,1.22,8.12,4.13,30.65,6.18,40.3a12.11,12.11,0,0,0,.51,2.21,3.65,3.65,0,0,0,.94,1.5,4.77,4.77,0,0,0,1.67,1,18.83,18.83,0,0,0,2.86.78,19.07,19.07,0,0,0,5,.21,36.24,36.24,0,0,0,5.06-.23,8.55,8.55,0,0,0,4.6-1.6q1.33-1.2.8-4.19c-1-4.09-3.33-22.34-4.47-27.44s-2.23-10.31-3.26-15.63c-.12-.57-.21-1.13-.32-1.7,2.48-.2,9.51-.21,12-.37,1.71-.07,2.81-.37,3.29-.9s.39-1.62-.28-3.27q-1-2-2-4.17a46.14,46.14,0,0,0-2.48-4.77,12.57,12.57,0,0,0-3.42-3.27,7.79,7.79,0,0,0-4.15-1.1c-.48,0-4.06-.2-4.54-.19a76.87,76.87,0,0,1-.55-8.36,20.85,20.85,0,0,1,.82-7.31,8.18,8.18,0,0,1,4.45-5.09c1.6-.4,4.6-.59,6,.16s2.11,2.27,2.95,4.08c2.12,4.72,3.55,4,10.6,4.2q3.94.19,4.82-1.89A9.45,9.45,0,0,0,277.73,78.43Z" style="fill:#ea620f"/><path d="M350.76,95.11c-.57.72-1.82,1.32-3.76,1.77q-8.31,1.44-13.14-.9a15,15,0,0,1-7.26-7.93,17,17,0,0,1-1-2.13,16.26,16.26,0,0,1-.69-2.34c-.27-.83-.57-1.61-.88-2.35l-1-2.19c-.77-1.34-1.45-2.46-2-3.36a2.47,2.47,0,0,0-2.12-1.33c-1.66,0-3.25,1.24-4.78,3.62a35.71,35.71,0,0,0-4,9.37,94.69,94.69,0,0,0-2.73,13.11,100.78,100.78,0,0,0-1,14.79,62,62,0,0,0,.83,12.09,56.74,56.74,0,0,0,2.8,10.81,27.6,27.6,0,0,0,4.28,7.84c1.65,2,3.36,3,5.12,3a5.88,5.88,0,0,0,4.15-1.71,15.42,15.42,0,0,0,3.31-4.7,38.38,38.38,0,0,0,2.42-6.87,75.25,75.25,0,0,0,1.61-8.22q-6.7,2.54-11.27,1t-8.82-7.31a3,3,0,0,1-.69-2.35,3.62,3.62,0,0,1,1.32-1.92,14.4,14.4,0,0,1,2.81-1.79l3.88-1.94a90.57,90.57,0,0,1,8.29-4.24c2.91-1.32,5.41-2.52,7.48-3.61a17,17,0,0,1,6.27-2,9.67,9.67,0,0,1,5.36,1.47,41.49,41.49,0,0,1,3.54,2.24l3.17,2.24a9.06,9.06,0,0,1,3.49,4,15.16,15.16,0,0,1,.64,5.31,75,75,0,0,1-4.12,20.26,45.05,45.05,0,0,1-8.36,14.48,27.8,27.8,0,0,1-7.66,5.79,33.72,33.72,0,0,1-9.52,3.14,65.44,65.44,0,0,1-18.57.72,27.56,27.56,0,0,1-7.1-2.4,22.25,22.25,0,0,1-6.26-4.44,36.8,36.8,0,0,1-7.95-10.66,65,65,0,0,1-5.28-14.41,89,89,0,0,1-2.35-16.6,92,92,0,0,1,.83-17.44,87.78,87.78,0,0,1,4.18-17A59.08,59.08,0,0,1,292,65.23a17.82,17.82,0,0,1,3.62-3.93,22.69,22.69,0,0,1,4.42-2.8,36.37,36.37,0,0,1,4.72-1.9,28.47,28.47,0,0,1,4.53-1.09,47.65,47.65,0,0,1,6.39-.81q3.31-.18,6.56-.05a41.86,41.86,0,0,1,6.26.75,30.77,30.77,0,0,1,5.6,1.63A18.82,18.82,0,0,1,341.76,62a31.19,31.19,0,0,1,4.79,7.48q.88,2.35,1.78,5.32c.6,2,1.12,4,1.56,6s.83,4,1.15,5.9.53,3.51.62,4.82A6.24,6.24,0,0,1,350.76,95.11Z" style="fill:#ea620f"/><path d="M126.33,131.52c.87,5.51,2.64,10.61,3.53,15.71s1.78,9.87,2.66,14.32a101.14,101.14,0,0,1,2,11.56c.16,1.47.23,2.75-1.82,3.32-.74.2-3.21.55-5.29.85-4.37.62-14,2.6-15.58-.16a30.07,30.07,0,0,1-2.43-6c-1.06-3.12-2.52-11.31-3.51-15.91-1.06-4.94-1.65-9.52-2.64-14.86s-2.53-10.84-3.8-16.56-2.46-11.38-3.56-17S93.83,96,92.94,91s-1.62-9.37-2.16-13.19c-.19-2.77.28-4.56,1.39-5.35s3.17-1.1,6.16-.94a119.23,119.23,0,0,1,11.93,1.22q5,.81,10.22,2.1a25.82,25.82,0,0,1,5.44,2,15.75,15.75,0,0,1,3.63,2.53,15.19,15.19,0,0,1,2.53,3.18c.69,1.17,1.46,2.51,2.3,4A26.41,26.41,0,0,0,135.44,89c.46,1,1.31,2.74,2.54,5.27s3,6.11,5.36,10.76,5.56,11,9.66,19.16q.48-4.49,1.37-9.85t1.86-11q1-5.62,2.15-11.27t2.35-10.67c.63-3.83,1.23-7,1.82-9.45A15,15,0,0,1,165,66.24a6.58,6.58,0,0,1,4.24-2.51,22.09,22.09,0,0,1,7.37.37q5.46.9,11.64,2.23t12.38,3.28a12,12,0,0,1,5.79,3.52,9.9,9.9,0,0,1,1.66,6.21q.09,5.77.24,13.29c.11,5,.27,10.24.51,15.73s1.16,9.94,1.44,15.58,1.25,12.36,1.53,17.51,1.22,10.69,1.52,15,1.09,6.92,1.38,9.77a6.19,6.19,0,0,1-.89,3.28c-.52.7-1.92.9-4.21.6q-3-.36-6.24-1a31.62,31.62,0,0,1-5.83-1.61,10.85,10.85,0,0,1-4.79-2.8,8.75,8.75,0,0,1-1.93-4.77q-.74-3.63-1.57-9.41c-.55-3.86-.73-9.23-1.31-13.91s-1.39-11-1.91-16.12-1.46-15.15-1.67-20c-1,4.35-4.19,16.64-5.27,21.74s-2.2,10.13-3.38,15c-1.24,5.1-1.9,7.54-3.1,11.18-1.37,4.15-1.24,5-3,8a7.91,7.91,0,0,1-6.39,4.3c-3.47.48-4.47.83-7.19.23a20.3,20.3,0,0,1-2.67-.82,8.39,8.39,0,0,1-2.2-1.3,12.48,12.48,0,0,1-2-2.11c-.67-.85-1.44-1.93-2.31-3.25-3.58-5.62-6-8.51-10-15.89s-10.13-20.45-14.07-28.34C123.45,114.85,125.46,126,126.33,131.52Z" style="fill:#ea620f"/></svg>